<mxfile host="Electron" modified="2023-11-01T03:30:21.895Z" agent="Mozilla/5.0 (Macintosh; Intel Mac OS X 10_15_7) AppleWebKit/537.36 (KHTML, like Gecko) draw.io/22.0.3 Chrome/114.0.5735.289 Electron/25.8.4 Safari/537.36" etag="XZhdTmToePNZY8lzUXjA" version="22.0.3" type="device">
  <diagram name="Page-1" id="mhsStjzkOhZaZQrf6CmR">
    <mxGraphModel dx="2080" dy="1910" grid="1" gridSize="10" guides="1" tooltips="1" connect="1" arrows="1" fold="1" page="1" pageScale="1" pageWidth="850" pageHeight="1100" math="0" shadow="0">
      <root>
        <mxCell id="0" />
        <mxCell id="1" parent="0" />
        <mxCell id="b0EF9LH_NtM6M0IGj_dZ-4" value="&amp;lt;&amp;lt;Root&amp;gt;&amp;gt;&lt;br&gt;&amp;lt;&amp;lt;Entity&amp;gt;&amp;gt;&lt;br&gt;Ponto" style="rounded=0;whiteSpace=wrap;html=1;" vertex="1" parent="1">
          <mxGeometry x="595" y="115" width="120" height="60" as="geometry" />
        </mxCell>
        <mxCell id="b0EF9LH_NtM6M0IGj_dZ-5" value="&amp;lt;&amp;lt;Value Object&amp;gt;&amp;gt;&lt;br&gt;Coordenadas" style="rounded=0;whiteSpace=wrap;html=1;" vertex="1" parent="1">
          <mxGeometry x="870" y="115" width="120" height="60" as="geometry" />
        </mxCell>
        <mxCell id="b0EF9LH_NtM6M0IGj_dZ-6" value="" style="endArrow=classic;html=1;rounded=0;entryX=0;entryY=0.25;entryDx=0;entryDy=0;exitX=1;exitY=0.5;exitDx=0;exitDy=0;" edge="1" parent="1" source="b0EF9LH_NtM6M0IGj_dZ-9" target="b0EF9LH_NtM6M0IGj_dZ-4">
          <mxGeometry width="50" height="50" relative="1" as="geometry">
            <mxPoint x="710" y="490" as="sourcePoint" />
            <mxPoint x="390" y="250" as="targetPoint" />
            <Array as="points" />
          </mxGeometry>
        </mxCell>
        <mxCell id="b0EF9LH_NtM6M0IGj_dZ-7" value="tem" style="edgeLabel;html=1;align=center;verticalAlign=middle;resizable=0;points=[];labelBackgroundColor=none;" vertex="1" connectable="0" parent="b0EF9LH_NtM6M0IGj_dZ-6">
          <mxGeometry x="-0.1049" y="-3" relative="1" as="geometry">
            <mxPoint x="1" y="5" as="offset" />
          </mxGeometry>
        </mxCell>
        <mxCell id="b0EF9LH_NtM6M0IGj_dZ-8" value="&amp;lt;&amp;lt;Root&amp;gt;&amp;gt;&lt;br&gt;&amp;lt;&amp;lt;Entity&amp;gt;&amp;gt;&lt;br&gt;EdifÃ­cio" style="rounded=0;whiteSpace=wrap;html=1;" vertex="1" parent="1">
          <mxGeometry x="19.520000000000003" y="-70.06" width="120" height="60" as="geometry" />
        </mxCell>
        <mxCell id="b0EF9LH_NtM6M0IGj_dZ-9" value="&amp;lt;&amp;lt;Root&amp;gt;&amp;gt;&lt;br&gt;&amp;lt;&amp;lt;Entity&amp;gt;&amp;gt;&lt;br&gt;Piso" style="rounded=0;whiteSpace=wrap;html=1;" vertex="1" parent="1">
          <mxGeometry x="89.52" y="100" width="120" height="60" as="geometry" />
        </mxCell>
        <mxCell id="b0EF9LH_NtM6M0IGj_dZ-10" value="" style="endArrow=classic;html=1;rounded=0;entryX=0.5;entryY=0;entryDx=0;entryDy=0;exitX=0.5;exitY=1;exitDx=0;exitDy=0;" edge="1" parent="1" source="b0EF9LH_NtM6M0IGj_dZ-8" target="b0EF9LH_NtM6M0IGj_dZ-9">
          <mxGeometry width="50" height="50" relative="1" as="geometry">
            <mxPoint x="680" y="120" as="sourcePoint" />
            <mxPoint x="680" y="160" as="targetPoint" />
          </mxGeometry>
        </mxCell>
        <mxCell id="b0EF9LH_NtM6M0IGj_dZ-11" value="tem" style="edgeLabel;html=1;align=center;verticalAlign=middle;resizable=0;points=[];labelBackgroundColor=none;" vertex="1" connectable="0" parent="b0EF9LH_NtM6M0IGj_dZ-10">
          <mxGeometry x="-0.032" y="1" relative="1" as="geometry">
            <mxPoint x="6" y="-12" as="offset" />
          </mxGeometry>
        </mxCell>
        <mxCell id="b0EF9LH_NtM6M0IGj_dZ-12" value="&amp;lt;&amp;lt;Value Object&amp;gt;&amp;gt;&lt;br style=&quot;border-color: var(--border-color);&quot;&gt;Tipo de Ponto" style="rounded=0;whiteSpace=wrap;html=1;" vertex="1" parent="1">
          <mxGeometry x="820" width="120" height="60" as="geometry" />
        </mxCell>
        <mxCell id="b0EF9LH_NtM6M0IGj_dZ-13" value="&amp;lt;&amp;lt;Root&amp;gt;&amp;gt;&lt;br&gt;&amp;lt;&amp;lt;Entity&amp;gt;&amp;gt;&lt;br&gt;Passagem" style="rounded=0;whiteSpace=wrap;html=1;" vertex="1" parent="1">
          <mxGeometry x="405" y="48.05" width="120" height="60" as="geometry" />
        </mxCell>
        <mxCell id="b0EF9LH_NtM6M0IGj_dZ-14" value="" style="endArrow=classic;html=1;rounded=0;entryX=0;entryY=0.5;entryDx=0;entryDy=0;exitX=1;exitY=0;exitDx=0;exitDy=0;" edge="1" parent="1" source="b0EF9LH_NtM6M0IGj_dZ-9" target="b0EF9LH_NtM6M0IGj_dZ-13">
          <mxGeometry width="50" height="50" relative="1" as="geometry">
            <mxPoint x="410" y="90" as="sourcePoint" />
            <mxPoint x="375" y="150" as="targetPoint" />
          </mxGeometry>
        </mxCell>
        <mxCell id="b0EF9LH_NtM6M0IGj_dZ-15" value="tem" style="edgeLabel;html=1;align=center;verticalAlign=middle;resizable=0;points=[];labelBackgroundColor=none;" vertex="1" connectable="0" parent="b0EF9LH_NtM6M0IGj_dZ-14">
          <mxGeometry x="-0.0705" y="1" relative="1" as="geometry">
            <mxPoint x="19" y="5" as="offset" />
          </mxGeometry>
        </mxCell>
        <mxCell id="b0EF9LH_NtM6M0IGj_dZ-16" value="" style="endArrow=classic;html=1;rounded=0;entryX=0.5;entryY=0;entryDx=0;entryDy=0;exitX=1;exitY=0.5;exitDx=0;exitDy=0;" edge="1" parent="1" source="b0EF9LH_NtM6M0IGj_dZ-13" target="b0EF9LH_NtM6M0IGj_dZ-4">
          <mxGeometry width="50" height="50" relative="1" as="geometry">
            <mxPoint x="435" y="180" as="sourcePoint" />
            <mxPoint x="520" y="150" as="targetPoint" />
          </mxGeometry>
        </mxCell>
        <mxCell id="b0EF9LH_NtM6M0IGj_dZ-17" value="tem" style="edgeLabel;html=1;align=center;verticalAlign=middle;resizable=0;points=[];labelBackgroundColor=none;" vertex="1" connectable="0" parent="b0EF9LH_NtM6M0IGj_dZ-16">
          <mxGeometry x="-0.0161" y="2" relative="1" as="geometry">
            <mxPoint x="-19" y="-12" as="offset" />
          </mxGeometry>
        </mxCell>
        <mxCell id="b0EF9LH_NtM6M0IGj_dZ-22" value="1..*" style="text;html=1;align=center;verticalAlign=middle;resizable=0;points=[];autosize=1;strokeColor=none;fillColor=none;" vertex="1" parent="1">
          <mxGeometry x="660" y="175" width="40" height="30" as="geometry" />
        </mxCell>
        <mxCell id="b0EF9LH_NtM6M0IGj_dZ-23" value="1" style="text;html=1;align=center;verticalAlign=middle;resizable=0;points=[];autosize=1;strokeColor=none;fillColor=none;" vertex="1" parent="1">
          <mxGeometry x="59.52" y="-10.060000000000002" width="30" height="30" as="geometry" />
        </mxCell>
        <mxCell id="b0EF9LH_NtM6M0IGj_dZ-24" value="1" style="text;html=1;align=center;verticalAlign=middle;resizable=0;points=[];autosize=1;strokeColor=none;fillColor=none;" vertex="1" parent="1">
          <mxGeometry x="134.51999999999998" y="-30" width="30" height="30" as="geometry" />
        </mxCell>
        <mxCell id="b0EF9LH_NtM6M0IGj_dZ-25" value="1" style="text;html=1;align=center;verticalAlign=middle;resizable=0;points=[];autosize=1;strokeColor=none;fillColor=none;" vertex="1" parent="1">
          <mxGeometry x="205" y="95" width="30" height="30" as="geometry" />
        </mxCell>
        <mxCell id="b0EF9LH_NtM6M0IGj_dZ-26" value="1..*" style="text;html=1;align=center;verticalAlign=middle;resizable=0;points=[];autosize=1;strokeColor=none;fillColor=none;" vertex="1" parent="1">
          <mxGeometry x="545" y="130" width="40" height="30" as="geometry" />
        </mxCell>
        <mxCell id="b0EF9LH_NtM6M0IGj_dZ-27" value="1" style="text;html=1;align=center;verticalAlign=middle;resizable=0;points=[];autosize=1;strokeColor=none;fillColor=none;" vertex="1" parent="1">
          <mxGeometry x="152.42000000000002" y="150" width="30" height="30" as="geometry" />
        </mxCell>
        <mxCell id="b0EF9LH_NtM6M0IGj_dZ-28" value="0..1" style="text;html=1;align=center;verticalAlign=middle;resizable=0;points=[];autosize=1;strokeColor=none;fillColor=none;" vertex="1" parent="1">
          <mxGeometry x="302.22" y="-117.92" width="40" height="30" as="geometry" />
        </mxCell>
        <mxCell id="b0EF9LH_NtM6M0IGj_dZ-29" value="1" style="text;html=1;align=center;verticalAlign=middle;resizable=0;points=[];autosize=1;strokeColor=none;fillColor=none;" vertex="1" parent="1">
          <mxGeometry x="515" y="60" width="30" height="30" as="geometry" />
        </mxCell>
        <mxCell id="b0EF9LH_NtM6M0IGj_dZ-30" value="4" style="text;html=1;align=center;verticalAlign=middle;resizable=0;points=[];autosize=1;strokeColor=none;fillColor=none;" vertex="1" parent="1">
          <mxGeometry x="595" y="95" width="30" height="30" as="geometry" />
        </mxCell>
        <mxCell id="b0EF9LH_NtM6M0IGj_dZ-33" value="" style="endArrow=diamondThin;endFill=1;endSize=24;html=1;rounded=0;exitX=1;exitY=0.5;exitDx=0;exitDy=0;entryX=0;entryY=0.5;entryDx=0;entryDy=0;" edge="1" parent="1" source="b0EF9LH_NtM6M0IGj_dZ-4" target="b0EF9LH_NtM6M0IGj_dZ-5">
          <mxGeometry width="160" relative="1" as="geometry">
            <mxPoint x="607.5999999999999" y="290" as="sourcePoint" />
            <mxPoint x="1010" y="410" as="targetPoint" />
          </mxGeometry>
        </mxCell>
        <mxCell id="b0EF9LH_NtM6M0IGj_dZ-34" value="" style="endArrow=diamondThin;endFill=1;endSize=24;html=1;rounded=0;exitX=1;exitY=0;exitDx=0;exitDy=0;entryX=0;entryY=0.5;entryDx=0;entryDy=0;" edge="1" parent="1" source="b0EF9LH_NtM6M0IGj_dZ-4" target="b0EF9LH_NtM6M0IGj_dZ-12">
          <mxGeometry width="160" relative="1" as="geometry">
            <mxPoint x="1100" y="500" as="sourcePoint" />
            <mxPoint x="1020" y="420" as="targetPoint" />
          </mxGeometry>
        </mxCell>
        <mxCell id="b0EF9LH_NtM6M0IGj_dZ-35" value="&amp;lt;&amp;lt;Root&amp;gt;&amp;gt;&lt;br&gt;&amp;lt;&amp;lt;Entity&amp;gt;&amp;gt;&lt;br&gt;Sala" style="rounded=0;whiteSpace=wrap;html=1;" vertex="1" parent="1">
          <mxGeometry x="139.51999999999998" y="273.48" width="120" height="60" as="geometry" />
        </mxCell>
        <mxCell id="b0EF9LH_NtM6M0IGj_dZ-36" value="&amp;lt;&amp;lt;Root&amp;gt;&amp;gt;&lt;br&gt;&amp;lt;&amp;lt;Entity&amp;gt;&amp;gt;&lt;br&gt;Elevador" style="rounded=0;whiteSpace=wrap;html=1;" vertex="1" parent="1">
          <mxGeometry x="337.22" y="-125" width="120" height="60" as="geometry" />
        </mxCell>
        <mxCell id="b0EF9LH_NtM6M0IGj_dZ-37" value="" style="endArrow=classic;html=1;rounded=0;entryX=0.5;entryY=0;entryDx=0;entryDy=0;exitX=0.5;exitY=1;exitDx=0;exitDy=0;" edge="1" parent="1" source="b0EF9LH_NtM6M0IGj_dZ-9" target="b0EF9LH_NtM6M0IGj_dZ-35">
          <mxGeometry width="50" height="50" relative="1" as="geometry">
            <mxPoint x="240" y="180" as="sourcePoint" />
            <mxPoint x="480" y="150" as="targetPoint" />
          </mxGeometry>
        </mxCell>
        <mxCell id="b0EF9LH_NtM6M0IGj_dZ-38" value="tem" style="edgeLabel;html=1;align=center;verticalAlign=middle;resizable=0;points=[];labelBackgroundColor=none;" vertex="1" connectable="0" parent="b0EF9LH_NtM6M0IGj_dZ-37">
          <mxGeometry x="-0.1464" y="-1" relative="1" as="geometry">
            <mxPoint x="16" as="offset" />
          </mxGeometry>
        </mxCell>
        <mxCell id="b0EF9LH_NtM6M0IGj_dZ-39" value="" style="endArrow=classic;html=1;rounded=0;entryX=0;entryY=0.5;entryDx=0;entryDy=0;exitX=1;exitY=0.5;exitDx=0;exitDy=0;" edge="1" parent="1" source="b0EF9LH_NtM6M0IGj_dZ-8" target="b0EF9LH_NtM6M0IGj_dZ-36">
          <mxGeometry width="50" height="50" relative="1" as="geometry">
            <mxPoint x="154.99999999999997" y="34.94000000000028" as="sourcePoint" />
            <mxPoint x="352.7000000000003" y="-35" as="targetPoint" />
          </mxGeometry>
        </mxCell>
        <mxCell id="b0EF9LH_NtM6M0IGj_dZ-40" value="tem" style="edgeLabel;html=1;align=center;verticalAlign=middle;resizable=0;points=[];labelBackgroundColor=none;" vertex="1" connectable="0" parent="b0EF9LH_NtM6M0IGj_dZ-39">
          <mxGeometry x="-0.0876" y="2" relative="1" as="geometry">
            <mxPoint x="9" y="6" as="offset" />
          </mxGeometry>
        </mxCell>
        <mxCell id="b0EF9LH_NtM6M0IGj_dZ-41" value="0..*" style="text;html=1;align=center;verticalAlign=middle;resizable=0;points=[];autosize=1;strokeColor=none;fillColor=none;" vertex="1" parent="1">
          <mxGeometry x="370" y="80" width="40" height="30" as="geometry" />
        </mxCell>
        <mxCell id="b0EF9LH_NtM6M0IGj_dZ-42" value="1..*" style="text;html=1;align=center;verticalAlign=middle;resizable=0;points=[];autosize=1;strokeColor=none;fillColor=none;" vertex="1" parent="1">
          <mxGeometry x="110" y="78.05" width="40" height="30" as="geometry" />
        </mxCell>
        <mxCell id="b0EF9LH_NtM6M0IGj_dZ-43" value="1..*" style="text;html=1;align=center;verticalAlign=middle;resizable=0;points=[];autosize=1;strokeColor=none;fillColor=none;" vertex="1" parent="1">
          <mxGeometry x="195.00000000000003" y="250" width="40" height="30" as="geometry" />
        </mxCell>
        <mxCell id="b0EF9LH_NtM6M0IGj_dZ-44" value="" style="endArrow=classic;html=1;rounded=0;entryX=0;entryY=0.75;entryDx=0;entryDy=0;exitX=1;exitY=0.5;exitDx=0;exitDy=0;" edge="1" parent="1" source="b0EF9LH_NtM6M0IGj_dZ-35" target="b0EF9LH_NtM6M0IGj_dZ-4">
          <mxGeometry width="50" height="50" relative="1" as="geometry">
            <mxPoint x="240" y="210" as="sourcePoint" />
            <mxPoint x="500" y="300" as="targetPoint" />
            <Array as="points" />
          </mxGeometry>
        </mxCell>
        <mxCell id="b0EF9LH_NtM6M0IGj_dZ-45" value="tem" style="edgeLabel;html=1;align=center;verticalAlign=middle;resizable=0;points=[];labelBackgroundColor=none;" vertex="1" connectable="0" parent="b0EF9LH_NtM6M0IGj_dZ-44">
          <mxGeometry x="-0.0253" y="-2" relative="1" as="geometry">
            <mxPoint x="10" as="offset" />
          </mxGeometry>
        </mxCell>
        <mxCell id="b0EF9LH_NtM6M0IGj_dZ-46" value="1" style="text;html=1;align=center;verticalAlign=middle;resizable=0;points=[];autosize=1;strokeColor=none;fillColor=none;" vertex="1" parent="1">
          <mxGeometry x="252.42000000000002" y="320" width="30" height="30" as="geometry" />
        </mxCell>
        <mxCell id="b0EF9LH_NtM6M0IGj_dZ-47" value="4" style="text;html=1;align=center;verticalAlign=middle;resizable=0;points=[];autosize=1;strokeColor=none;fillColor=none;" vertex="1" parent="1">
          <mxGeometry x="570" y="175" width="30" height="30" as="geometry" />
        </mxCell>
        <mxCell id="b0EF9LH_NtM6M0IGj_dZ-51" value="&amp;lt;&amp;lt;Value Object&amp;gt;&amp;gt;&lt;br style=&quot;border-color: var(--border-color);&quot;&gt;DescriÃ§Ã£o do EdifÃ­cio" style="rounded=0;whiteSpace=wrap;html=1;" vertex="1" parent="1">
          <mxGeometry x="-179.01" y="-80" width="120" height="60" as="geometry" />
        </mxCell>
        <mxCell id="b0EF9LH_NtM6M0IGj_dZ-52" value="" style="endArrow=diamondThin;endFill=1;endSize=24;html=1;rounded=0;exitX=-0.029;exitY=0.384;exitDx=0;exitDy=0;entryX=0.992;entryY=0.536;entryDx=0;entryDy=0;exitPerimeter=0;entryPerimeter=0;" edge="1" parent="1" source="b0EF9LH_NtM6M0IGj_dZ-8" target="b0EF9LH_NtM6M0IGj_dZ-51">
          <mxGeometry width="160" relative="1" as="geometry">
            <mxPoint x="579.52" y="199.94" as="sourcePoint" />
            <mxPoint x="709.52" y="84.94" as="targetPoint" />
          </mxGeometry>
        </mxCell>
        <mxCell id="b0EF9LH_NtM6M0IGj_dZ-53" value="&amp;lt;&amp;lt;Value Object&amp;gt;&amp;gt;&lt;br style=&quot;border-color: var(--border-color);&quot;&gt;Id Piso" style="rounded=0;whiteSpace=wrap;html=1;" vertex="1" parent="1">
          <mxGeometry x="-210" y="90" width="120" height="60" as="geometry" />
        </mxCell>
        <mxCell id="b0EF9LH_NtM6M0IGj_dZ-54" value="" style="endArrow=diamondThin;endFill=1;endSize=24;html=1;rounded=0;exitX=0;exitY=0.5;exitDx=0;exitDy=0;entryX=1;entryY=0.5;entryDx=0;entryDy=0;" edge="1" parent="1" source="b0EF9LH_NtM6M0IGj_dZ-9" target="b0EF9LH_NtM6M0IGj_dZ-53">
          <mxGeometry width="160" relative="1" as="geometry">
            <mxPoint x="130" y="10" as="sourcePoint" />
            <mxPoint x="220" y="-40" as="targetPoint" />
          </mxGeometry>
        </mxCell>
        <mxCell id="b0EF9LH_NtM6M0IGj_dZ-55" value="&amp;lt;&amp;lt;Value Object&amp;gt;&amp;gt;&lt;br style=&quot;border-color: var(--border-color);&quot;&gt;Id Sala" style="rounded=0;whiteSpace=wrap;html=1;" vertex="1" parent="1">
          <mxGeometry x="-11.58" y="210.98" width="120" height="60" as="geometry" />
        </mxCell>
        <mxCell id="b0EF9LH_NtM6M0IGj_dZ-56" value="" style="endArrow=diamondThin;endFill=1;endSize=24;html=1;rounded=0;exitX=0;exitY=0;exitDx=0;exitDy=0;entryX=1;entryY=0.5;entryDx=0;entryDy=0;" edge="1" parent="1" source="b0EF9LH_NtM6M0IGj_dZ-35" target="b0EF9LH_NtM6M0IGj_dZ-55">
          <mxGeometry width="160" relative="1" as="geometry">
            <mxPoint x="112.42" y="220" as="sourcePoint" />
            <mxPoint x="42.419999999999995" y="220" as="targetPoint" />
          </mxGeometry>
        </mxCell>
        <mxCell id="b0EF9LH_NtM6M0IGj_dZ-57" value="&amp;lt;&amp;lt;Value Object&amp;gt;&amp;gt;&lt;br style=&quot;border-color: var(--border-color);&quot;&gt;Id Passagem" style="rounded=0;whiteSpace=wrap;html=1;" vertex="1" parent="1">
          <mxGeometry x="570" y="-80" width="120" height="60" as="geometry" />
        </mxCell>
        <mxCell id="b0EF9LH_NtM6M0IGj_dZ-58" value="&amp;lt;&amp;lt;Value Object&amp;gt;&amp;gt;&lt;br style=&quot;border-color: var(--border-color);&quot;&gt;Id Elevador" style="rounded=0;whiteSpace=wrap;html=1;" vertex="1" parent="1">
          <mxGeometry x="202.64000000000001" y="-250" width="120" height="60" as="geometry" />
        </mxCell>
        <mxCell id="b0EF9LH_NtM6M0IGj_dZ-59" value="" style="endArrow=diamondThin;endFill=1;endSize=24;html=1;rounded=0;exitX=0.5;exitY=0;exitDx=0;exitDy=0;entryX=0.5;entryY=1;entryDx=0;entryDy=0;" edge="1" parent="1" source="b0EF9LH_NtM6M0IGj_dZ-13" target="b0EF9LH_NtM6M0IGj_dZ-57">
          <mxGeometry width="160" relative="1" as="geometry">
            <mxPoint x="130" y="10" as="sourcePoint" />
            <mxPoint x="220" y="-40" as="targetPoint" />
          </mxGeometry>
        </mxCell>
        <mxCell id="b0EF9LH_NtM6M0IGj_dZ-60" value="" style="endArrow=diamondThin;endFill=1;endSize=24;html=1;rounded=0;exitX=0.5;exitY=0;exitDx=0;exitDy=0;entryX=0.5;entryY=1;entryDx=0;entryDy=0;" edge="1" parent="1" source="b0EF9LH_NtM6M0IGj_dZ-36" target="b0EF9LH_NtM6M0IGj_dZ-58">
          <mxGeometry width="160" relative="1" as="geometry">
            <mxPoint x="140" y="20" as="sourcePoint" />
            <mxPoint x="230" y="-30" as="targetPoint" />
          </mxGeometry>
        </mxCell>
        <mxCell id="b0EF9LH_NtM6M0IGj_dZ-61" value="&amp;lt;&amp;lt;Value Object&amp;gt;&amp;gt;&lt;br style=&quot;border-color: var(--border-color);&quot;&gt;Id Ponto" style="rounded=0;whiteSpace=wrap;html=1;" vertex="1" parent="1">
          <mxGeometry x="730" y="200" width="120" height="60" as="geometry" />
        </mxCell>
        <mxCell id="b0EF9LH_NtM6M0IGj_dZ-62" value="" style="endArrow=diamondThin;endFill=1;endSize=24;html=1;rounded=0;exitX=1;exitY=1;exitDx=0;exitDy=0;entryX=0.5;entryY=0;entryDx=0;entryDy=0;" edge="1" parent="1" source="b0EF9LH_NtM6M0IGj_dZ-4" target="b0EF9LH_NtM6M0IGj_dZ-61">
          <mxGeometry width="160" relative="1" as="geometry">
            <mxPoint x="520" y="65" as="sourcePoint" />
            <mxPoint x="610" y="-10" as="targetPoint" />
          </mxGeometry>
        </mxCell>
        <mxCell id="b0EF9LH_NtM6M0IGj_dZ-66" value="" style="shape=stencil(lZ3ZriTHkUS/hq+F2Jdnzeg/CLAlEtKwiSY1y99PBIiqrGuW94Qa0ANJud3KyIzw8MXc/Yf8l99//vG3Lz+k8Psf377+48v//PLTHz//kP/jh5R++fXnL99++WP90w/5P3/If/nb129f/v7t679+/enPf//txy25/+m/vv73/gv/+yeujkcfG5XC//35X9Jj/9v631//lP/nL79+lI9N5FsE+f5oKj8Kyuf8QT4/Aj1Pe8wi8vj87VGbyJeM8rGLfCP5+uj6PIPlc/ogX3i95TFVPtH7LI9aRL50lI9D5NsE+fz8nJf8YPn68fvWR2gon1Qe15ses4l8of2ZHj2JfKXnT48yRL6zvD3/JPn4/L+f8msDsrzst8b7OT5KFfk2UF72wzpw9D7DY4YP8p2fPzyayuP+DI80Rb7D/inzMT+e3/EI8PeXvOirgftnyeci8p3/fvi43+Yjwn4u43n8LvnK8rmJ/GR5eZ4Ynn/hHrAUelcArtg0enztqXtA0yO8AHTHLED9+I5iegRadHukqIACu7TUpxJ/A+BrXVrn47aI654JCAhZAYPeUnneQy9AeWQGpKoAUtVlPYB8h3VZMaB0BRx+IciHa/yWlrYOCiB1tABZAJ3P89K/WQH4C1Ev2DieKvYzQMwKmPTh1vkSwNIBYCMsgOikFFDp5alGVHqp5c8AsugUUY0tQKwK6PQLQ++19LpJPwPoohPeDLnbovNzs3wGqFUBA770AuiiC27v3J5P/AaYtIam2n6bL7Bbc31utRegPc/gZ4AWFdBoL9Wn/f0C9EciQFHdugCDAWLC7DuaNt8yqWXR6xam75AfPSqgwhFdgPzxkXJ4fvt7QNLvsAB4HpKq+xzREF4AcSwWgO7pBQgfVeX6L4kWHZ+W4xtg0Bri84J6AdZ7o90a9cMtwCBAeBrjL0B5vobPAMUA5K/t7yqA+rRvbgFr54yhAPKAr632ArTTL4hJvAC0hnVcxCbOnX9hqM23APQdFiALYKASuKzyN0Cnt9SfW+0FmOhoLEA1QONfEM9t3asRtvf2jKoCyFa/XK83wKS3tKyjj2d6GRMFtvd2HrMCyCJb18eQNSR0B/Z90xSAm68+lcoLkHlrLMs4KqDT5itqOizTl5TxvpWHAio9UrGtwff0Dup83HzloDXyU1e/ASgOswBVAO353j4DZAMcHikaoNHmSxrK2J4dHaCkZ7pw8GABxBJYANQa60aT3Tow3LYAopcWINEjxaft8gbAvWS36AKQVZksglPm85R/BtBFT/TjFiAUBTTa3uExkgLIPd7uxcczveM6tDWCar4FKPxIKSiAtsbyqWS31vh0yT8DyBFdgMy/IE7TAlAseQHEhNvRQditCxBl0RzNX56nGCcLQK7lAkh4rHI8/3KGX4CMu3UBZLdWjpxc/vkbYNIvdA0X1YIxgfhyYN4AdIvuoIR8uIpR2QUQm69ymPiKk7wADY31BdDz0NCliRbyqh1d/AWoSQGkNRZAH+mVXLoHFPvSg3/BYmSVo607hGYACoQsQJBwesBrN66L3QDkvC6AOE0LQAGpmDWi2yKq+5jUul8A/IWkb6klDD1Gu0UXgHzRGNUMbQetEfVLLwDdDwtQDEAuzQIkea1sVcagYewFQN0aNNS/AIPWEJ5q6wWorO6DxlsXgEy4qfGo1jBb97Ir3uRpyVMNjSVPDtDQSGjjaK5dPku+w0YdauK213+5le/Pa+BNvsKe6GoBLHnyG7oGG9rEe6TZsZlocTf1iXs4/P1k8vT3q76fHp+Bsk/k5Rpc8h3lJfzZE2eTHzGqPK3XLpwlT0Zk0WRyz8/74RN5yRL1zDkcTcYuedrPWUPcff0FOI/5GRF5k6dseFYl2gveHFnzbr0+rb17K16jpEu+kW+kcdve8L5PGv3rrxPxibxkk5Y8harT822/5Dt6j9HOC/uz0fbbwNRqfCYH3uQpBhYt2c5Btqj3S5+Ygwm63hFw/1smbMmTnxmeu+Ulz/GyoJ7Bkp+w34IGv8aLHvKZvDxPxuzLnXzn5xf5gtG7O3lyO1y+ogfr8g1jfXfydL+4fMeIq8vzebmTJyPR5SeyWYLaAzOcnmeqPGVcglr2M2JuOmgAbsmTfRJUP0++T6PGTZc8uurqUs6M+zmq/p/M1ot6vy95jFBqQGZy5CCpfpjMpkvP3fUmT/ZwVr9q1ifJ4xN5yZEv+UrZLvWqlvx32RuzYQytaKxnchSjKFlssn9Rbp6H7tOq9/tsqP+rRsNmxwhG0zTAkqf93Ox7sX5rRhbrmFXuSjqanHrvRi4bmEg3rtiSJ/uzmz4ZmOQe9r0G5jCGhp0ns/uGkoG2PJzfqRSrycH/afphoL6aai/NgWSM5fCnpAAyIBag2oo7adCg+Y4N4MCLPxLdYQtQ7aViyNm1+jjFs5KtgRhZO2ImjzSRYLVjckUBGDzKGrlYADoJ0XjYC0Bspvjijb8D6JGKKbvJgfmq3sDk6EWs6p5sAIecJc5+AjTl6WwALbppkucE6OribgCdh36zlxAwniGOfx/gewnXMJT4eQJMO0BHgF5UDFiWZvTXygA1rY8AvXv4tSaLIE829rd3779AADc3j4DuiyZAVn7IadHZLPLDa813i6aQjHErDlpjAar/AgP0fmBFtikrtr0PpJjmupUeqVlVwGSaQdNI+5xo+ac7RZbIdXll+96vLNpLRrDaAP4F3xoUvU3DrqyB4Ypbe48S6GkoCeBga3jGY5s/9B2muXhs8uVwY1OSDXoRSd+NYiIRR816bKubHina9h5PouY9IJn27uj3Z3ecucwnZyWJzc6R66yh9wVAEnE2Q7czebWYc8LO4QJ088bIe87VPhyHy3I1f75h9VpuSiiZDQMY2YgMs/F36GbNNLyBnIW/Ywb0C8Oc3Ia55AVQM7RiFCBPc+sPYZKphMPJVYfZqtgWAAtlXuyo98gQRWLCzS+QMt51L7Logrq1JPOBCheOJdtLBbPVJdtuLbiXise3CjpNm0hqACzf84hVxojqrgOrCqAjuivNhgLwLdWboCcWLDUzQ7lQZgH0Bsr8lrp5ihnjSgugi05ImlwAKUudCQMhxUNLCY/oTaFmwgulGFlvAUiRlWm2d+LXOpWQvsP5VOwblBO8AJTvqFZvsQC0+Wo0Ey5yfbaH9COaoTVpjnwGtDUWQK2ZcCp51w8XeA3ZrqyAN1A1uviYuL2rEQkGFyzVoi7+YIejVv1wC0BEt/piFr0AHHq8GI9vADpA1aLjO5tHb8nC44PD3dXi44Otyt29YiiAVOUCSAZ/AbD/gxXKjENKY9jWaPxah3ooC0BB+zqVFTQqa42pbtkCkEuzOZVJAfSlL07lC1AwyLwAeh4KXootahnLKOgDNeP5j4xqpiVVMwtAtWwLIBbZ4CL1BRBLYAGIvtayEj8XgBTZAgiBcESs3WnF9lJExsACKMUjIGmyVa0pHFxJsAD6WgNaxgugrCsun2hWxbsARItqFszpg3l+XT3FBaDE6QKIA76ZRfSlu7JdD9SlZiWCC0DlEwsgtkZvvL2nsic3u4sBSj9srGbmDT+Noj896P2wAJkSrkEP0AJgxjUaxbFgfGkBxJReADpx3bjZPWN6rSdjjWZkHfSk9lLPTMM1Rda5Enn9PdHeByLoAkjyazNN6Utbzfl6b0Rd3EzLoADy2LuRG/ZmgRuoV6WL7+1IH87ou2vDD9Aa67horQLHvS/65AvABKtuBlbjerxujt+mgNNeGlYY0Pk7DPWyGrdU6lPbpDRWM/u+kTVUbIgzLPnVKkYS1yWrBRps/iyAqMrGfc6GWTO7ogM+3AJI5KRxadqyjoRs2yI6Tdv+igogf3pZeKJbt50JamYU9YG26UtvqeoatjVOBRHWnmPXUNHWsIju9lnoF5oWFm83il5r11D89uxo0V2N9co93rbXJjWFBS+U5Rcmea3cuWUBtEQw8xEdVvHH0Z8x1Z+ubBkPrx7lZgE7ZGCABAdoByU+rqFw9ngGLUIs7OLvwIrUOneMhk6roVoAqhOeFl8qDRXZNIrpodB+R8QEwDUP05JfhYswdtxQfiHjLTqth2FhP25aiWDh3jAzW5fKiGbotMh6CXimZ1aq3e4xRb9Q9Exn5pFNM7Ayq8qdnpCmPlxtNqt10Gl4pqcF1XLD6M/O+kj30opO0wJo55aCxskCDANQnG8zfOUtZeSR7XSdLDohiXE2tch2qyJ+JO+VhG+paa1zDvxIdsflwOeha1R6MwdoDUa13WQG/gXtTtaxSH1n1KMCqPjg4ga/AI3vB+stmTgvOq3+cjd/4V+QgFQqaM1s7oR8B47CXeyMNwCZ0hf99QVIrDWsB0PipMu0dPOuq6CtMfUG2oUhtAaLnCRufTSnEvl3swtSAtY2NU7WfEa0iQNtvotm9gbAIzq1GHC3iiTjxPJxkQNSc+oRPbS73ABvqMmvVdyyyH2GNkAWXTDdfAvAi90BGRnltwC0Wx2Q+I67AxAz5+a1Rozo3gIognUDCGw6WOnA5vofFi1pztNWUoLUaQUSUhvoJk6r/R+sxIbV9mKodV8NKo8nYVjAjlVeV5uBS4H3/SwhFn4/Xd9nw9LVTf1SebzNrflcZVesabz+cJc3zZ1WzEhPq6WqWAo8rY9c5f1Z9Jrllm3TuowyW2k7MNLtDFPFS17cEW7fPK0WvvD3TRplLHz9RXW1OUSyeRs66AAVljWGz/x+grVUPQVUJG3NvUWHmSwZ3+ewhsQZs4A75iRGFxoHoys5IWGsfVhKL2Gp37DznvA87krtJPKUox/V7F7sOjSqme7IlBjG2ufWZjt/r+8TI3jeJBjz+Tt6bPIUg8zaSyEid30k1VfcimDYeY8cdTU6JveWG1Fj2Uf5aOvlnEW352d50Q/8PH1aY/eTvPZ1P8nLYBx+/93S2Uf5Yu8f9MmSD/Z+SN70D++3nYmz5+FUn051QMrCkpfMRkRex5JXFxQTUr36fiDHp1umJWJFwtXZ5k2e1muDfbg5ZDdmcUR9vrP6+n2JDLGT+noeKR7rGfKI3nPPGuDi1iw9a6EAd7XbnZp0vRSW7Mm8eWRbbVaD6gfyv7rZVxELtjZdQN8/1Wt1a67OHme3Xj0RCT4XueCSp9Y13SoQIobylnzU94ksq6l5mIiEjDbV3j7K2/2F8kPJEkd59fjRfrh4Dm/yRPmyshdOF7au9hvTppuV+3EruM2iqCKPPL2uUc6A9nBrap8H1OfN0hA8xqjZ5IyjvCTljvJivx3lxb84yBtd6Cjfvmu9Re2To3zU/YbyWf3Ho3zT/X+Qz7o/D/LBvhftZ2tufpSv9j5Z3s47npeo9kNAe69Z347IrW6CjczC+7pZM9OI8YGrz+6/Z49VG+zG9ny15tsJ77tqQzUS3u/V7POE+b3a/e9T675q1dVn+fB9z9PVf6fJQ7sZtD4P5T7uBocSJ/pOHqsW7vwdLu3o6k/RfLb9PvW8YFGEtTGPGF+tQ+9H9l+qxbeZHbd5ZOb/HuQtHkK1NUNZwQnt27u/j61k7fm5NaO/n4Stm/z9Jx4Ma983Yfy/Wn4hcWWd7U/mAPn+Z8La3fmi+OrteeRaq++Kp7n+4XiR6zeOD3y3vM1IijzI1LL4h9bInjHnwarTRiXiTMxmvcED6rd9X5v9Q/aGVVgFrkCJ2nQlING72SDcgPq/2bizQ1VPcv8F/bUb+41IS3f2Icrf2J/oD97Ytwd5s58P8mafo/yN/X+QN//iIG/+y0He/COUv/G/DvJ2Xg7y5j/ifrjxT1G+3exnlvf9TOerabwosP7pag8HrqfsGg/hmupmvfcD3kfN9H9A+6RZW7bANXxD/YuA+a823F8jPoPHo3ius8e7jvIW/znID1svxYctHniUt/N1kB96fin/vgvr9PkxXh1dX2E83BodBI6339xfGM9PypcInC+wFkwB7c+e1F5lCm23LgpMeOpZiw04HrInI1j8kPMvHm/kej07v0S37VaozK3re/H8CxZ+VuU7HeLt1guKi5969fwF8SV683g1ltE1bcPBhd/d+E6Rixl9DD1ywu/yoVipe5NvRX1yk889yHs+i6sMLR+N+bKbfDfFZ+7y6VgLd5OvP8gbHwDlo8YTjvLGZ8BW0Dd8iYN80f15kJ/2/MwnsfNO8Y1hM60j18xZsWPEeOAonj8lYv0we5tLkEZV/mE8VUaa/47lcmYPH/g/Te3zxPWs1hj4wHe6ia+SvbH5Zhb/Ib7Z0POVkNI8pjbESjxKy8oPE5fJBSX4H+osghWMMf/T+hxkjCdMH4fO/NukndPz04C6l89WN8W1kzbgl0dVzGKTa7mUpujzF2bdF+ejHvi68n15xvLVQvGSJ3tvN3XU9WIxhvmzFf3HabPV6qmAS56n8ii8rnxFbiUyu42fRf02zT5pqK82f156COB9dE06uOSxRGKofm5crja1mIzHke6CIeXzY0mfFVR0fp8WXx28H6bm47h38Zw2u4TPl7cI5XJYm3ccAyYsY7A2FIcalTvEsQxGH+pYaKOAYymPAw7FQgo4liM5gDoh3QAKfolpbYcidze7AVSu0Z3m7FW+bWy3xkPd/TRzt3NR79Tq09hPJYYS4InjVMSoGV6ejrcAEmKOPNVjTuNszmOlmhiZhzL6qV7lgQY13axjP/fqAv8GOChKcZwOmdU5dGtsU+1QGlYVgLUr1t4jcQORaU2BUsVo8O6gPhRAdJNrMNIL0LDHz3Q+yKHAzQkeg4f5dvWQ0+ASKGvkkib6pLvGTWpweP7drrsfCiAW4bbaBMC0Zy+Ly4k3X1O7LXMr4mmBsZzZMrSWPbnwI1UrtSpcm1ht0TwXbvehEOel8Xmo1q2DW9XPYuVonUdVF7XHMs8Cm5ZQzIcS9KIZiQU4uGziAu+27NyXRX0wJn0vQDIAdXi+5i2+ADyJfSZr5JL5ANnQmlJO3WuEuFgq98eJGhkpB+MkWinnofbWJmKUQ+cXG2RbBpuhQatJCk8mmUHD1+VgOgT19yrP9h5m/lRmmAyrEK9cYrQA2t0scYzQYlQ1c1B3aJKoFm6HZiz53RmbAN0arrFfP6zzS2VVOYzIXrmtxLDKp4t79VloVEIrdfBrrXplVTZ0R9FkxQJgtWCxanduwj6yrqFFrg/Oyidq7CmOpAURLZ1aHEoEtmVM4Q5TZBcp5jOAxJAbF6UPa7jWKmbFh2Xdr27Gt4BuLk1rWCe8AGLCNe54vjsVNwWQ/9DtTDdu9NW7elmNZzJ1a//U+Dx0CzY21t7duid0pqv0aj1zD/l364PdDwlgS2DvEjV6rTbJrSekAPWsFJGekEPZbYjTZiEwKUCC4p2DObuKMCqA0mALoL28M9fFWp7hYhbcA6JaZPvLcKWf3A+du8F2a9XQuRdHD7q9z32wxRLoPGNgHRdRlftIER1rqr20CQPM35L6287zvZqNieqde9sP9eM6B6RaV5dm60IGZAMgibep3XruPF8MQEpgAYQWN448Rtneg6erbCKm9ecnE+66M18A9rIWQAeNcG22c2E3e4Bea1by2kj8pS17uPkDdIBsys15moRo78ENXpo1Rj1PxCgGIHXfoo3FKVxDGrTGdlRU9wsgpJnBXYuqOU2D7aU6lQYzeOS915WNxo9kwc0FwAFI1h15cMfzao0g91gcrr2QuMZmN3DxlDhNg2OV1Tp4Do7+1GYnjvtrLoDwYQbr1uUXih832Eis1bbGRMpBtRjZmDy5qijHa0yM3e9BVDLfi5OEyz/3YVoUSaxZaceTtXe1ZsczonVffbr7odImaqB8MvWpRhuQx9ykGmyWaEJLoAYb4c2z4qpNTJpc/lasJ+LketFieaDJMzeKNUbdwUia2TfUlN6cGRqQZzNoJlv3xabc7EbXPKgwGoC83eJjlzPaS8VGaOz5j/SWquX9M+qlBdBGkAXdgR2OjQqgwGAxT3GP1aQ1FJvZx/m4PbizK4A0X3m1738D4MDIpMmv3d2bPlxSf3pyQ8IS7TtUtMh2y3V7JBxvGm4G2eJo0GCjcivPB/amohVZLXnejPuljF82WtFuREnDeK2Od/LUp51XCgogQ3cB9DwwdSk320uHwc7Nxsx2NB2yJfBmx3s6Wz5u8hiQbBHd2dFD2eOvbYQ3bb6c1QGfPKknWwfNyR3Ps0V/5uDvYMmvyU1qc7oZpU6RkxxvhrUTqyVHdcuuxrj3AJsgNnmkzAKoNcOTPpMx2ya3Ct6sgKoA0nzJKCSb5wIf7uo9/Aag3ZqMrzF5gGqycv5N7oEPl6z+8GIQfgZQW2MiAzY1O6JMAbw6Cr8DQFUugH8HsjWSNfWdnAdKlmmaE43EzfLNBqBHKt5pmytxk8WxL8bePSDfHAh8pmyTnY8AvSDYkdtkffty1P44WRr/BIh3i2ZA8TUQICiL8bRoG4N2BujNzt8hThv6fQSoM3oADG2bcAa4cj0A1CTjtxT7jXI9AJK/VgK413QE5O9bdDVj4whQW/oIUDv0sIZioRM+D5sl7I8Et2LMyog9qO9oNbcbwL8QDEB31iZf+zUKujUmM1wnmpUx3hwgsrCiTQQ72A7ROh1v64QWHbSUZHKgL1p+7RqH8hnAHwlZvTcvCUlbNw9EUWxrLrDlYcXDAmSTRzPeaHrqvmkh7006psSx5snm4ESzea0Dh54YEXZyNLqZ1TN4iLUaPZPHprYbL4Oqo6pd/p27hWlCYPI0j2p+FZP/i4VwO0egzBbh6iKPizOdNWuaaPOMyQmz5+HpH9ZMYYdVyJaym6Ci65xu4jykdT3mznPqjAM6efBXNFeHaXvRzmPBoJCrdI6RumnKUVtrPrLjyPC93JJNeNW7D59QnwcLj3KGO5jNyN0srFnnZKK/FY4NHkXq8jxH+k7++56n4/5xedYPd/LU/cLl6+l7WeacXNg7eeINujxXM9/JE1fA9s/gee1Gfh7cfdMcvxHRPglGjuBuOjYpt7P3EDQm3SfqT9MnfSC/0FIJfeB9Z2N1d3sUlJf7q/Nsyai+T2+oP6Na0J3PS1J9tWfb4/0o/mSvaD8nta+u9j2fyHeTx+C47v9NroTnz0pF3txKCo0rG2LJYxha8w2bR0lxbrUPe0J7u2h8q3P3U6vl6dx92XztztNLivoj/UAJMH4jdz+qph+4m37VuFMPzMDREuN+6Hap9kOb2M3CaIGN/UGrsmuTu1vdULopQdy12URj/pA1e2qd+dnKNNjUS/RPtTSgcT2E+ke7/SL6s3K+Lt7lJ/643F+tcrWp6rclj90XNDuySZew3t17ICiAUkILIO1cNumSbpigTO6W+YoMWtLemDEZo9VOcAubGLWlUeOe0DEqSadxE+xo92TjYu2re8IbAB2lZCef555c7RZeAB60sACie1tAKlO0osjGrUpjVhpQnVhhEq2wc9dD0SMVq3wbSIBcAC1kG6hgYlENtlmaFISsalJUrh+PVe+E2pBCs0PmQQF0iUS71SpzY6MNq18AukaiDTWsFStyrwHNbwAKhO3UhewlngO6215MBZArtKdSyxq4JCV6p6CMxRbRbreaMC+8G2tUBZA7FI3aV5nPGG1aUj0oMmsvtACoW6dVgnKDyJ3Ks3pZunPj1IlY9aD5rL9I5R6y0a7dGpA3lKwOpxwS+rdlyJQ8D1bSPvHK2v1KqgIoFLhjbx9faxlMe7Brt3Aw3KOHC4CMmKhKoHRsAZRsONwuOOd8vlbZt1M+X/KXpaH5c42TfQNQHc6OKU8FkKpMWTVf4en2e6JvUABdKJtXERVA7XNSVppEKVg1lrJ1wePAspNJNvmVvrTNsS2ZaUBW3lTYbl3OobB6SjqxenTz8eyQZLMzCw/bSdX2UkT/Nnn3Px53kZr1hOAIXrJ+n+WgW5v63HliDjDZxPfMxXieZcwD0/M7jVkVQPTEZBd77nwejH2yAHRlJasKyI2pT1NJnJkLztNUdZ/r6ReaAZA8aO3VMkfXc7AvXXB7L4B+6Xz6Be17xIUKOSoFP2c0pRfA+x6RW5ajDWjnXjWbTFsUgGtIamBlnmmXk5Ys5oCNMHK2IVSTybRZE3dpYtvf/V2lTfCB32udM65D+xlABzN11Hxr9+ukOj6iC6B9wBrSVRZAtkaqaMLtblNBAVTCuwDe8Y16pGTT3jsmTY9kIcfEjZJy1xzA7pBMb8knoCV0XrM5TYeZh3nYorlpfLYmqzsTRYuetmge61SCXuyRGWXFVOV21KhwJ9ighYFbo/ikZU6elWit7Ds6Tcuckmv3ihJ8BtDm/e30C9q9v/EveLv5ijGyYvM3dsSJXqtxaiJ3iC5Fk1YLQKHHYlmcmLnMrCqNJXJEtxjfPSb0UIr1edkRWK4P1DGpkes0jUsbI9aw7BpHeSSetHK5qm8AiiQugLJfUC0VG+U4uehy6ANNjKgVixUdFID1MRtopxdrlNYxubfk5ZN1bDFWg7XywS9crdU+169V7yKFyaJqGrXxqMho2TEeHRo1plTx0vGC7ooh2ZqsdR7egjVpXKLy+7fRShXzE9VGKxVeb1Y2S8FQT80aUebq2yWvDRiRHFFvRhHg+zE2Jjs7u2VfEnkcBV01BsOW2pKXgod86i2hLiqTZ5v6LYl7iDQfrUHRxdqVvcOjQarFFRLv/5tR1tjoYvgobgqM7FyZjnIhl2jL22iZg7yOljk8j3YWZ/Ly0O8V0bupVvNzHNUszv5hFO6dPJ1fkz+M5jX2/nF0+vjO/SPnnUfvXLnWSz6Rvj3Kr3/47cc/fv7zX/72yz//+fsf377+48v7//+3r9++/P3b13/9+tPrP/3+84+/fVn/9v8=);lineShape=1;" vertex="1" parent="1">
          <mxGeometry x="369.29227005357416" y="-94.40586279869262" width="352.32064573547103" height="218.51028704620742" as="geometry" />
        </mxCell>
        <mxCell id="b0EF9LH_NtM6M0IGj_dZ-67" value="" style="shape=stencil(lZ3ZkmTHkWS/Bq8pvi/PPdP/QRGCDUhzCAqInuXvx20wkRGlGnm86q2JNs26ca8vtqip/VT/7V+//OWfP/9U0r/++P23//z5f/361z9++an+t59K+fUfv/z8+69/nP/rp/rff6r/9rfffv/5P37/7b/+8dc///c//xKW8X/9j9/+Z/yF//0nbq2PVgJV0v/587/Mjzr/33/49z/t//7rP761L2qfyH5+7PaN/fiYCe3nFPvO9l3tCz9P7WKfMtrnb39v/5gF7MfHWmLf6HnGx9C/nzfa1/qNfXu84K/sUxP7McD+/Dz9+43e//l5WexzR/v07fupH5v+fvuYXewHvc+m67l+tIr2OYl9oeepH3N/Y18+Nn2v888vsV/89/MQ+05///w5tcfvdf5cF/tC6+f8v6vY//8P+N4+Pz7nw/78B9ov+aM3sZ/89/MU+0HfNz3+3NMez5P0UbfYV3j/c39s/fuF7bs+P+33Y5+r2sPzz/Ux9HnofJt2nif8XvOcz03sF6yfY1/Unr7vHI/j9cWenn/ofkkfA86f2R/b6cWe/v45r/R5Opw/sz2Omxd7OG9n/Vj29+n5z/GUf8S+fIz0I/Znu84fs6/6fdH+83N+t33S70v2Yz+Ovxd7OB/G0vsu4flw7FMXe7rfx6c79WJPz3/8AV2fDfbjsU/6/HRejf5Rl9rT8zTf75Wep+l5dexhf4362B7fbZ/0+1b6Xuc6tL9Pz3/Wvz0/7N9jb+ut0fMnva+PPX2vz8d9WZ9g37fed+nxAb+y/6Hzv6+H+/hyH7G9+M/54cC+t596Pn86CF/ZJ73vJqznfsIJtd/wfY+9+IflI8P91fvDHXnaUzx17LP6Y/h7m54PBeORYy/ft6C/3Y9/++33rejvHftq/jPZl4e78OKf03ouel5VjB/7+ZxZ7Dfsx2Pfvj2fOX459ulH4qOedL1x/HXss8ZTG/ZL27of++ODf2Wft9h3eD9tqT/WPxY9z/Env32es4FgPbep8dTA+/HYy3k4HgmD9/ZDz9uJ/vOxl/N8YvzYut4XE8+fYy/30cL8ybGX+27h/d6axlML/edjL+fnfizw9/Yn/G5iT+d5M391PxIe7+0/w+OnPZ1Xx17i/ZweEcFXgDQVgG80awbiAPAnnCOlKWAxQGKYzEFbSxZkZ7yVDkC+Wv70278CNPsX6Jxu6c1vGPAv1P3wM14AE/6FA5Cb7wA2bLUDkK2WC/oqByC5jgMgZ7SuR+7nBUDRwwFMeyRKZx2ApkfOBqEfvTQeyxU39AFkA1AGrFpG9wDIRa6WMjgAunMOoFcFUJLnAKoB6BSultU9gEXfYdiOq5j3O4Ahx0zDi+cA9NRoj6PzK0BJCqDQpnYN7Q+g0Yfr9uHaI5vwFaDbI1H0cQDiLRwAuWu12Y7rjwTBVwCJ7w+g0Fpq6hAeAHl4B6DfoT98vveAaidf57dUHymtFwC+papJhzw+Eq3WallGLqPUYvth8Foqth8Gn3zF9sPgLWqZ6sylqQOQ1N4BUOxS88fKCqBL8QAk+XYAgwF67c6PxQBdfOxP1mQb6HjsdFQm+9ELM1I1aUXrAChlcQCSMj0APL3TY22+AHA/WFCVN76lcDqrAqhMcgB6VG7MAx2A5L0OgM7W8LMNQP7SAahH9lmreA9Yj0zIZ6ogPYotXwGmASjZUcybuWRzI9jpCqClcQCaTklYHz3hmv7o/DgLvwLoj8547RarUEdKi5bG1BJU5LQYIIdAyZg0iJr9t/shslr0Wscj6H8B4JceemVFXosW31Bn/VIojTq/FFYrBk3l8wp8AeCe7lrKj1wVvaVuubmKMdAz9/ICoGraAYijW9qjvv8VQLz7AyD3J9JNSwF4kDW9H85/oeP+mQB7AUxwHZ4Ztk9AR1c6UnhNAfgbqiYNg+XBgGmPhGfr58r5BIyH6/sVQPf0wEJi5HWzAihSPADJCURqjJZGse8wH8nZrwB5KYCKrXFsGQD3g+VmLum0OHoNQI7us1zxAqCCX9TbtwIo4xsF9KWARa81qVcZVz196WS/YT+c668AQhp6+jdvAcezWFMB5LcegKTFw0djgNYZuPCatybqD4COmXA65ZEyZk7CrR0KoPjhAOQ71IzuT/jy9kgLNlBEC9/63pVTXtlSLbVgHBchUlcAFQTyNIJVfcRd7wHjkdV7AVAiJFuq5QDoBopQNSuA/KUDEK8ygn76cP2x+l8A+KW7HsYHsOg7WB0/cilwKUbaoymA8hqRWNkKIBcuN3USI+NEv6HZBhroSudmH25gAJ6bfbjBG6jqYRypQvoNVQ/jyF7yvyCeQORH6TvURw76BUAlkWwUwsjxMkDCgcgiE8BIhweA36FoFfEAKBESefSpALoUn5n6TwBH7Acgd9wBEFMoZ7sfNq8loza2hM76AUg2tDG5JSf1lxqzQ6JyZQBKqkVtTACZ90PSKyvKYQDYyveOehvaa72+4C291QdtXNNZegC0gif30oP72FNBemlw3z4ZTV/YS2a28W047fk5aDW+TVR4iaCp9ffGBIup/L3GBIuhHkxjgsXQO+TY0/MPPSeOPV1SQ/l+rePV3zUcbh1LgnbxNw49uyZLG1+yXf21NpjAZPyWCyHDvhc3eDT7vQMj56bXZZv4/pt934nv33IFT0bK+1yy5gvbJyP0C3vht7SFlfeqF1/j8LFqWrgtLkwqf74xgcN8g2AcUbBp58/mBKye/z3h9y3WL8OE7KIlyWOPaRGtn/fMCTPltxx7zHHoedi5ocL6KY491cKzpqd7RQJWVr5i5wabbO+zYdbIKlq9IcHR8i3HnlgeWcOafglrdP0fe0oxZaUL9YGE6aTnQ+ey5edq/LSfmJtJyo/qTDhLmiHrC9eb8fM7E86SBt99ISE12XrbeH4m9U+OPSUdk/oDx578gaQJkJHQn/yka7/Y8/OIvzq4oSVp2XtkzGgm5b8FI52fP6k93XcWAIyCAUDS++jYd1wPbk/70e0r+pPv7MmfeWdP8YjbNySkvLOn89ztO/pvSakfgxtW/fsOjC98vQ30T3y/cJXB9vuYeL8n5fcce/InLds+1uW+kDTBsceoX1koY2OhJ2tKa2yMH+2+ntwwY/7AZPaq8ednQn+yaLwfHWFUvdAcx+SGjaL+/+Tzp2jh+dhj3cz44QXXT1V/YFa8H6uWqY89fd+q+2VeeINaiXx2IH4Vv2S1RwK9UmdmR//B4q9jj/Rq9SePPfmf1v9y7Mk/bLrf58AGia7x/mQBgm56CIMbcvS8PfYUH3UtWM6JpJyumdY58f1bpWJOTCEOjV+OPZ2HQ/3zY0/nydD8xlz4e00/4djT+WP5pcnstKn5kMnktGnn28La0rT1v7FiN9WfP/aFGuaV5Dg35mOX1lknx/vL3v9G/20ps24lLAduXT/Hnvwf66+Pjn54nq3x9eIG4Jz0gl/ccZ4tIlmJPQjr7liJ62hZz6DFIgFRmRgKwHpmVsryARAJNNs1vzLSG7P1qS+uAxyAlIlDeoICebuJ16U2XnVphxgGpWosN7gKxhrB8N8KwOROe+SWXgC4lpo2axzAJveyK7d2cXwVleusAEoo5m5vqXLhbeiRtDgkC0KAbNGGNZagHAwFYPFw2odrD52XrwC6lrgzIluXTSjn0JdemuhfnQMPo6+Elg8VD600FmJB9Fq3ctgOACvX+5Eq+AQMTH4E76grALO11qYWgkpMtpL7+QBotZakDkZIPNG/kLUCsZijULK1kLILGTGg7OmJPnwEdVsB+FqLRrHrSg2UsH1Nfq1V/fIDwNdqPTAHgIn/qpHF4spOUG+zApBQ3LS2sLiVwqmya2Hw7uzdxdmKCF/kR288KqNemRRA/lgQY4sCqF2wDHOwNjcJDE3hHgCmFIZqEBwAxZBBjJWmZ24yjqbxoQDKMnlXweY0zZPn+gIgHl5ZGnjuzMt76X7YmSnLW/fDzkyV3colOABiBUXveFUAUmWtj2cXbhc07/4AsBEu6ZW12efzfqpduFHaCMUHQO3kByBNM5t9Pm9T2xVztMFCbQq4tAuqykDlJjKjcx0AHQIHIIfArtxqV7Rj6wDoqIyWRwNcujD11Gjcil219nkA2LBebfFxd0e1bOEBUDXzACQ9tC89w81Wa8P8a7WE4QFgY2izL92YsdHU/TkA0jiqxoHZHYl71W7R3TFoCibtUAB+uK5p6t2ZtjG0zn0AeC4NLVTuzjtuKLNlc+bWm+4PgLQAD0By/7vjcV9NTGYP9GaqtQseAO64peHAAWD77NIIZTN/IGirWQH44ayTdHOEUi3ldQCUm2l+KXLvdkuatD4AitifLNQXAGURW1Za5wHQYdxM5ykA9BustWhPVsYpdmpcpIaKuT+TVVwsR3YAdO02K24dAMq+VNuiE/3WZlFWAOiRLKl2AHQ/NL+BJvpLwS+1Hz3pwzWlXBwAalyZpsQB0IXSrKi0Fya9D0Bf68JzqVnZ5wCojN9M124z578NO/m4cB68zmoAqgROpTpsLs0cgGpFLcwJuDjZAWDxc5mTuJDN1UxOcS/M3R+AemQswNWTnXwbj5kDkCTC3hi89myX4uaSaX7zL9C51Is5JxsXX3Ae7UfTLRqkRwNQC3C37M/eeJAF7dEAdO32pky5vZHZEtKQ9lqJWurakwGg2vKwsGzjxR7qmc0AVF2eWn68A/SYuQK2/QZUiFzmCVwBGvhdAKZBfAfoPc2AkSxougLUm7kA3MG6AtQ5uQBMfucO0KTaFaCO7gVQLXNyBcwfe0smFnUHqL90AbivcQU0O8iwg8YkLzdTBIZpau6NZc4xlKS0WRxnTHPhOGc8psogxXFPP3opL3EzD3lY49lmIuABqDfD9/Q0Ku9mKvXMqiUazglc7AegP5r9pWmKD3vhDTQ9C7ewfTb0782FwwEN1bI/rPgwmzJO9sJsaBDo7LVS1mH2N1EWqSXE0AID4BSFbicfB01zaNl/cxvztBr7Zp5Z0NwsjsPvYJN69sROljntO0yMsqZp+e+B9elpzZub1YenqSfvweMp9ptHIvr8AWikODAsO4Bp+SU6l4Kf9UM5Mh+hsjumWpb1nESej3pijZS9O0+ByVb84mxokI+KAijPt7zC0fEwDmqQpbFJ8eEA1NfgRPl6V3/AH/22nEBcPlOy3I2naTVLeVXM3QdL5ofqQKtbXqOipkSQXqw0RSXCA9CMbuHfMCxS5JaYZQXtfRnSNOyRmAu3poWWrNZ8APqWWEB6eW6G1XTWUqL5Tpi288l1O/GoL0/mJLxQ1tYa+9q8RbfRYDZKpjyJCi8AuhS3ySucX0Vn6072SNxPvJO+pcUNy/FdjaSCjN6s98OFyrPtMF48pDCK/EZHoj29i3FDuWCxbYzaYiWa5xnxAqCK364aHgd5jv6Fakzpzr/BlGgOgFpzt2n/HwD1HkVFvSqAiGfPAvkngC/F3bRatridLurdSwHkL20fqMACFts6VJ7X5FcAfUvcgh3la+PoUs/wtkvxAAo9Utd7+ul9fAWQAHzxHJttFfAgV9Py7poCXhfhl2477qIs0zXrECR3+tKmDbJ4GNI2TyBcX/rRplayeHzYNhX5aJeg5T20X2Ky1F9EPFkBxOfbPoHlcmVZpBgtOrT4jFgwF17s25t0Ju+4aVNhuFQb0bO1kZGDtaf1tQ0+KqfyyCZPmt3GKJ8NCbGRxRgKII3GvbSsMyv20mxvNmJXOiqIWQFEEH9mkz4BPM8z8lXW/0r9+pERSwqgwC8A0uHMpakoOQpgYXi8Tcj7ANDXMK3MwTr1AVgKwEtxaywabeP0o613YAx+rdsGT/Fkq23s08FKI9tSLaNhCjhSyvJaK3+4rVHWYInqZ8nxE1B4tRpZaBRsrwyALL7MR+XWDTRYMW5vrXCMxBHKVjd0sE799hlpXBJ5VkFfACSuuW02UWd9w21ZuBiUyGtJOCd9YiZxW2jZOX36BsC5ygCY1M3lSyug86X4DoAOlgNYjPwtACNFB3D32jaBw85s7LcAjFAckJEg/hZAyc1tQ0V7uh0CDqABNA5om10HB/AMkLcADF4dcHESt0m9cf3hDWBwXsMBHXNkbwG37yCAxqGlA3j01lvAbccJ4L4fTIIUQxrb0weAvrdNe2k8Q9Dvh7pv97TqQXNt1+/pyr1lAZB/Yd5ODeHN1HlzTlyt+XIpSn/ck8X+pc9nItgX16EUBVyuXSloV+7b3Vtj0WeDw5eutGgpVywGbxs6WHmE7l42ErfegiYpJ1RuUdounV/4QrGgKVqK6MNZWFa5tywCP9Pax5NvmS53QiGXCF6nAoiTGLyDrQCqlgXABj2g32rDtsvmC8Uq4NHEx2kKndCxeD9MZSKUxRksG2FQrskcOYwvQ0P2VO++MNchkjk2lgTPJSMxFm7p9vxS4XF6QbYwAOb5fEbUxXWYWo97Shd9BZCCxVNL+Ms8n80mwktx2JQR1rraQwtHIX/F6VO5Rcslg2VdU9Gofsno2mAsjLJMQOkygT6SzDLthceHRRo7K+CSipeEVGEV+UjF21Q2PL1NVKRc0tjdpnYykzkqHF0BeGWZ0FfoYdD90G3Q9KWQ2mymJktRb59tygMst4lv58k3UNM0dh68lprNXB68RZseZLmjXtZuNqqUh3tFl+63p3duHIBX7W6OQSX0Wq2rNuaO8L+gU51ZFHCbyneoGXExWCpNmWVVvdycCwd+RZ3EfEnFWw9HvoRlRXP3OXPgV2xPX3y+YtNTWRx829CQzOJfT32CFwC6P9mmnCds5NomyM1aFsG+UHs8KF1+gD+CCawyi3nbSJJLHidpjnzxiZSM2sH5umR0FiY6bave495fNvmM9WqXlSkmzxex0gzrOS6LeybumWUc2IkRw7KB9APXZ9gXsactuZaWyAeeKsuGsA2mji4TYMb147Q09uTDfqk9uBXHXq7kq73WY5gEujQ6YgLyslCeC3vLKNGsl/rOnppz3z0PUiGXFoc4aRv2Se1p/1oi4jOw+nI9TLUnLrSXxJm++mY94/nzbj9e7G0/0nn15u9TCm/ZSGiei7qWCd5jo0/Y6/u5sEq7Pv9t/2615/X5Y/ZbdQAHNiAv09zjgXfLct8sKRD3qe6Xy/1b9D7CNJz5Azwdb1uzAXfWH3sVrOUsX9a8CTexP3nUT3t01E27lfWCtwnAby5VZNVV3ZxSLxqPbX7/pux0HFxqrwo9LXOhL+xfOdHzhVBQlEqVWXD3qaf1EmhQ//q2kYz5wqKoeio+5xV+GVJmBdA59yZoLfyjq/L4YpQl5wKEVZTrjcybLVK/5DN0LTX+0p6e6Lz4rP029G5puzWtVsbwWM76aITIF8g2jcfME9e26QhkVvN09m+eN+as+CD50gLQlXWaue1zd1utC926yFHKb2DFiN313MusIrlNQSVylD+WyU3Y1Ry54m8/XOEemj20lfs5rusrgI4Sz9xkMDQ9US7FeFMJK6xYva33u1TsT3xTd2Dlvz2Vploap1imfbh2KxjJBioNg5Y39Z/OWZNpX/rCdrQ5n6XzYWzdtOXSsGIdX4VlxZ5Nzy8AvIG8+Di5tu7lzcndIV5AnZyNXppnLReq7dJ0VFnY0Lgt3iksQeQc6fAQL4ClgAuhQE7vsnl5Lx3KU9ONSa7zohNGeXvp4qvp9uGklhiyqbyWhFRdL2W1bQOmed5AUEeyArCHZutBVsuNwSxCfrXeCGeSLK7cr7u3XlmVFUm3aeVUnt8bAJtjf3mtsrxr53PJmVGX2vq2GfCXZo9t++HSTrJtP7AAhFM8K4/F2ZbGrptLg1v91sqyMQcgzeLtEsdt9chavjEFdTZvvtEjJY67UwsVcCUvOuBCj1TAlYCpgCvF0wE/+JauNFUdS38lwjrgQrVVwJXM64ALXVgBV0KyAO6UZ+Hx3UnVCrjSth1woXgq4L4fDIDjZZKlAy/8+XcIpui/R1AO7h2C8wLvEXTmv0Mwu/U94kJv1c/ByVzf2v2+8Wyc8KUzRtKnl/nAAZDOGFaf3CZn3PftXxDXb1y8UZsyM9LtqpPL9Cmn9yUgKeDSoST3+ygcw1r/UHSKXbqspO5QOcdpwxnGJd1nlfBxofNZqSLE7i79dN4TyMtbi0WsdeSU9cs4XKesj3n7cKUo4PLhRL51sLKvM9DHNcKUU2OweN62yVEz8Wu1HtnowuV/QdunMxNorawW2nUch2udqWAhdFuhNbqhOejVytcl/b20qXZeOlh9GGS/ddbL2Tp5OvSeei4dALa8TqUkzslyAj4wc94SWTpx9cLDnPYdeIjSG/2BzUHvUF9xbq4q+MSixCefMZ/XJdgy5vNi+aU9bArZhWw3lHizeFJ95MuTAi4ZedVrulASLed/ABglW1VhXdjb3cRgCscd3UR5Ku8Hl2qpnN7oJkJSr0RmeaTGtcimid11rePpNLjGJIFm6jE8xfqN7A+PU/Ra5GIBwKAZbwUg07OaPg3PT4kSrz0SltqNNRxSdEyV9lGEJJ63TWF5DU5Z2nj2ENqipVHeiIXh4ivGv5j8G7JW/9elSJC19rIm1yKzDZ1cvB+ScUoXq2X4lEqeOr2Tpo7XZolBp7lu/NJr21vaTOQ0v3UzMSRGG1YFECFhmRhMkI+Z66pq3QnLo8tKWpuJITH1ciqATu9lzkkQdgjgYzg4UlxDCaNPIv5XANUOLizfaiMhNzekrm7zhCqTsn10Al+Ky2eEVR5jbhdK0F2IV2htKM/Wl68A3QDIPK42Oaqhv7SKjfHjzpjQrP2hOWcxYduEeomFER6e/QtI78ym/M6qh8/R6C8AJAgnWxpX/WN9pIHNOk+JthcA5fynCRY83fevAKqVOtC7Dx1qU7qm0zuUru2RaC0dgOofM5E61LpdQJyUrq0xeLMnMKcJV0/+DvPNyC/KL81hM2BYaGva7POn7tt7gA9nYOdk+tm6+Dt0u6cXpk+nj8vihFSkPUyynyLFaa70k6LwFaAYAL9DeTNFgIKmaa1lmwlrM78Z9EGXYkxzMEChR0p2CDAlLiZS2BgOatsdJtq2ecTRsGaKfZk9smzG8Mb4YfgMSXZDY/aIvSVysGK6iT0S+d6jv5knRLyntxNaqGfDZ8C81JLeI5znekdY7+QFYcNyvgOhDZ03hAWk34FQSvAdoa2yN4TNRvoOhFKhbwib8PQdCGPiM8LnVH0Hov3YL/dpW9+B0N7/G8KIhN+B6D/4O4yWekW8G65G0Wa3fOflXOj9zR1DBYPud/3G9GVvb0YBUpWkW55tM5cwBvX5yC2aWVffDBuk+nAMGzQA1fRinOGPDerLmgW73JMxktHnW/GUSP8XcJxhevMbcLznfjeSkeayvnMOcHqtD8/ZPB932eSmjSWJNt+Mb6MtGiNKzZXFscPDBjGx39iGDdpggaXmhwAPeGhWkriNWe1vfjS1BLf+Zs4YxVHNJPOfxdOvABqp8VCvGApsj4RryUYX7MVrqVomj6eANWvxikiN1lK1EUOXOcVFq1VRnoXjvtlUi82TOQ7gzdgwAuQ3U8BwKLAPYpqY5G2eELrMvPZxt5ep2padjwIw/Yb0ZnwbTgZPdlSyTk81Mu4eOHOiGsf5kt+pPs6QCzd12eIbuJaqNV5fklrVJwYNvOPqtCGoA4+ZOi2041lpB6CHMXP86rAcFcv+12Fps44+Xx32ljrqS9ZuUX9Hzn/16YQdOyOqSWlt5k7WZj3JPKmm+oXSsamy+gz4jjmqaoNnnnX1rwB6KfIsnOqzZTk7X6tN62xYw6jVlndDz/gApH8k+mPpS1cb1NeQRV1NVWqzxv5TmfQFgFu0WBasYTo/pEwFUPk7+B1X8Z6u2c4lHgB0AFrIrFiiOwC9pyum/qqPiq18kCW7pwsGr9WrJFw1rMnu6YI1veJTtZnNXmw4wqVUWkxr4zl57D1gWXY+448upt6zM16KxUaqRAUaPlzxScg8r6FMC/wSZrbLtBGlrKz7VLB5AdCpERIzRh0o9JaGZYUTHsahrmqD+iivEd21TQHE6I7+XSdY0FqyWzSkwuCYKc3mW22UJijNCEcL00XFCjehxkSAqsm+xYWbaO0uCqD74QB0ghZXq0oxHhdrGRRLFwULhH6DyRQulrgppjq4uMz4FHx9AZD7cwA6JZKVRIupAi4eAFSS1ocXhzTF7oc1kOcb6gtZAbTjsg0WCPIa/IZs7QRBj4O3dACijbOYPp2tjXkNfEvZWOkx9JEeyWZ0Pck17wFTPbIgQlIz1bSBiR03UJ5vZjhSRjcPjXYvdNE8bFpn498w1NENyiu9JZNEXuzzZSu7r8r9Y93eUsUOh2zCMos1Y7OJ/cYEafpwzd5SQU8gV6OLchNStqRajJWk31DtUix48oUsrhG0iQiZffIrk8yzMQFWxjxfztqftlgoN1s4cACUhTsAPQQyJmhDFrcpgMLjA/BHovshOyE1M0H7TUcEtoHYA13m+tnzsALF0mBjXciodkomHjBv25891qnO3uTKnffh8BxQc+onj7qeehVOri8N3ZeT2S1DC16TJ1nYoNS58MAeNjJ0IUvcyjKTOUzdWuRYSMYEsebC/WJJusni8t261yau/66n3GSyXVfq3GTd4WZTZAcmtywDOFkntNmg0IEecNOiWMxrpZy+9ep19E4tMjr2pNtYlWQ3O15L1WRpebCRxVGT52ZXLbhN7tovtv45B2Yij8HpQ3vd74WjNHUkjj0VF4wUFJNp6Q7W8shkOaFs53PGaD+bjHDCOkG29cyimdn2e+JYyGTJWR4jqas4mFNh+cfBZIGk9+9YyIhO1hnOJNakvvHg8WpJe0gHR+BJKX6D63FJiZPHnvwN054YHZMU7+z5/evzNLxP39nTeeL2LLzzzp7a95Lu91Exmeb2rIOYbCQznz++Hgr2+tmYg8FBRrKJzxn3u/U0DPbnff3zZI1kA6XTZb9I/bpvjFWT+tt9Y7XB9ntndlPSVGlnfriRNfu6PI8IU4RQC+4XYdQESRL3u9ShQzmG7Zfa8/kj/knnuRFJc9UXrZxkE5u5qyfZRFvu1k3qr/aOqb9kwjqNUyN6Phx78reNQdhZnSWrTsmxJ/8z6/3YC9LmzT8J2iX7P0XtUQXqzYxjIq1lpf131toteh52Pq/Mn+x8XhWNvxpze4u+z7bRnyn6PttGLkx5M6CZMqLFtPi4w6bq+XxRdKu63hrP0bFuysadV1XXT5uX+Esqu40LIk3XTxtIy7HSWmN1XVM6b9zK37Sq27jyYBoPoSJIBGOtzhx7qul2rWM3JuR0Jei3juuza7zQWKK523pu3Nqk+7019AdskGRr3L1hI6gr5hOm+ueN/dtp661yt6Vm6hsrAdqY18algGX7pfBcIo1nW8HzZNn5UHgOlt7vLbMclN6/xx5VJjRfcexRv97WA88wz0mLyi1x1c08ysZDPGPqhgFY8FDv4OC1ks+R1Umv7KRn8zoq33rZKul1cx0jqzZaXbgucrHfwHT8bE34B1DIszGKXOVUcQwCke8wuTZZNdldmW+QTZmmTvS2DkDSfReJ5Sg1FgXQ/o+RnfJaO0uZNltLHT3A3EzEma+0bDnvypTRGGYiX5oJnVFUXgpAL7mbNnZDOk0Uxk1BHPfD0ERGrVzMHBoZB02VAXJV1YKhbjYxtQPAXO3UZNIBUA9CtnHeNWO0m22cQ2VeYJ62ljLmA7Kx6ytr32Qb9FhZQS7bGIGaUEYyL2Wm14Q1smwqFoVbs2NGjI1CwGPGuuAKk/CyKe4eAMaZyYaPsICuZ07KYvJXshEtixmglnuIajPFgll5spchpsWaeKI+TezJrPdD4XAt6i8GIOekFFtLA9dSRPBFAXRqHICO1eDRocXI8kFTJUDVPV24F6TYPV14dkKxHoTSmZRadU8Xlq8vTRPX579Q4aO0N8N46JgpTYWMS0MhsoiFvz29IxvAPFkdZFMx+CmmZ1X4Uoy33hSA+8Hox6UyT9YC6AOggLV0regVJvwXH7BVmPY6bLZO4ZyWaZiWwoxoY5lE3pCWxtBewZKv3PeiAOS+T000lMyFcGtqKzxW43n0fgISl859EhTXkr0HobAnUJZmC8uF8G9TYMuF8G/KNJllYIpRd4NfzM0jyQD4pa2BPm9M6RXzZvKF8G+K7JllJIvJ0OfFB9k2dQ9WtqzG6s7Mo6pJpZ0yi23WZPIhC4/7mmy+6OSGMKsF5cmtTtn0ezgAr+ZgHQC5DjWb6g03PVdzsDLLtdX8Zq4lBX7VHKzMFbxqDlZmf+k5TusFgD/aih4RndK/UE30hafsPUPVFwB2SVelH2fOo1cTMsgdT41oVN0KoJTXAYiTmC+NquZg5cYdxlZsyJe+U9OtiWwN/YZuOkWcro9cj/0GbCPtyurOlzZSa9zOlzbSYWpZlfuwTfM984SCOuyOq6jeUF0EiQfO1ak0imD004ebykPIzMOp05TOKhKFq1UqMku4V9Ooy1zaqMbtztzZWpf2MGfucqg2gDHSzvRabTxiZjpjteGFmXWJ67bVyiNvQrJiK4C6fqpJVseUbtbpkDR2FBiIY5zsBspIumpJO4wzszJdayQn1nyxxrzMs4paViJ/TqzukzXlFZUhlqFRRzfxW7IGSe61jcqhjqAnKlIzmfuLcpVL+2BpOSq30qvBEk5WSWAX99gL12Dx++zK7WLqf+vGtcdCX7PJHhfqg82EHqyJZZrngzWDpnGBMbXXbIgvO23NTlNuoWxbuY0d09bNTrqGUVg37mfDaKGbHlHDS/nY6wBIXG/duokr5gu6NbxV3L+96Hqr2Ipw7GW9cWqrV0tXsw5jtVQYt9aY5iFf9yGqqM9Dt33vNsUaL/veNeznu75biY6pDy5smZE62adSE3iWV4hz6vPQtd2NS8JUv77U1+c7uG89TxKv563yFQm7MUO4NYk9Jb+GdW/yvMOR9b7g+3oYdzJhlOySuwkbxEdVB+IqG9zt77OUcdbvS/yI0fx74fN3zcMl9B/G0Poa5yrH0F7Ay/ey3s2EIVOIbuv7pPv02Unzsj7p/ZtIcLoJmdvz0H6fSUk8F/usxZOr/db3ifZFc8sXexvscbWXiJVbi2fTGPpi3zWqT5grmd1/L+r/D+29Tkh9m8PXG7VeT/Mnmcg2p2qXJFSfm6ZDmzBbFbMz9PsildMmJSVMJ0/zJxNWfZf1QnGQumywAFMPo1Nf7alVbBnNLzOVM1umAP2H0GOQqBzTYKEQoX+f4rtlXPvLyKaiRRJWmAhdD7Wn/bgsh1yw2raqcSUwpbDe+Lf4e5tyt1l3ZDVNirCYXUyD0viC6sjLuOQVW/WOvTwPi8UsExO7TIIytbKG8WboHgk3mZ/fsrTcOh7aUBovUwIo1Kr0719mnAmXufPkuKm9U4Op20v9PaaGHnuJZ3l40jLRPia3LosvuLQW9tILfhuUp9oYfN6+scfZgG+eh+KRsC9ij9PcrBY/sfV0GbGQJaOXabFMzL/5HMGrvfbiY/y+lmkVYH5jWTlgYj7nbn/+j3/+5Y9f/vwff/v173//1x+///afP7/+///22+8//8fvv/3XP/76+Z/+9ctf/vnz+V//Fw==);lineShape=1;" vertex="1" parent="1">
          <mxGeometry x="539.8207098515909" y="-12.603803946355583" width="477.2718943989489" height="286.0820548527867" as="geometry" />
        </mxCell>
        <mxCell id="b0EF9LH_NtM6M0IGj_dZ-68" value="&amp;lt;&amp;lt;Value Object&amp;gt;&amp;gt;&lt;br style=&quot;border-color: var(--border-color);&quot;&gt;Nome" style="rounded=0;whiteSpace=wrap;html=1;" vertex="1" parent="1">
          <mxGeometry x="-130" y="-170" width="120" height="60" as="geometry" />
        </mxCell>
        <mxCell id="b0EF9LH_NtM6M0IGj_dZ-69" value="" style="endArrow=diamondThin;endFill=1;endSize=24;html=1;rounded=0;entryX=0.5;entryY=1;entryDx=0;entryDy=0;exitX=0;exitY=0;exitDx=0;exitDy=0;" edge="1" parent="1" source="b0EF9LH_NtM6M0IGj_dZ-8" target="b0EF9LH_NtM6M0IGj_dZ-68">
          <mxGeometry width="160" relative="1" as="geometry">
            <mxPoint x="80" y="-70" as="sourcePoint" />
            <mxPoint x="40" y="-90" as="targetPoint" />
            <Array as="points" />
          </mxGeometry>
        </mxCell>
        <mxCell id="b0EF9LH_NtM6M0IGj_dZ-70" value="&amp;lt;&amp;lt;Value Object&amp;gt;&amp;gt;&lt;br style=&quot;border-color: var(--border-color);&quot;&gt;CÃ³digo" style="rounded=0;whiteSpace=wrap;html=1;" vertex="1" parent="1">
          <mxGeometry x="19.52" y="-170" width="120" height="60" as="geometry" />
        </mxCell>
        <mxCell id="b0EF9LH_NtM6M0IGj_dZ-71" value="" style="endArrow=diamondThin;endFill=1;endSize=24;html=1;rounded=0;entryX=0.5;entryY=1;entryDx=0;entryDy=0;exitX=0.5;exitY=0;exitDx=0;exitDy=0;" edge="1" parent="1" source="b0EF9LH_NtM6M0IGj_dZ-8" target="b0EF9LH_NtM6M0IGj_dZ-70">
          <mxGeometry width="160" relative="1" as="geometry">
            <mxPoint x="90" y="-60" as="sourcePoint" />
            <mxPoint x="90" y="-96" as="targetPoint" />
          </mxGeometry>
        </mxCell>
        <mxCell id="b0EF9LH_NtM6M0IGj_dZ-72" value="&amp;lt;&amp;lt;Value Object&amp;gt;&amp;gt;&lt;br style=&quot;border-color: var(--border-color);&quot;&gt;DimensÃ£o" style="rounded=0;whiteSpace=wrap;html=1;" vertex="1" parent="1">
          <mxGeometry x="155" y="-140" width="120" height="60" as="geometry" />
        </mxCell>
        <mxCell id="b0EF9LH_NtM6M0IGj_dZ-73" value="" style="endArrow=diamondThin;endFill=1;endSize=24;html=1;rounded=0;entryX=0;entryY=0.75;entryDx=0;entryDy=0;exitX=0.5;exitY=0;exitDx=0;exitDy=0;" edge="1" parent="1" source="b0EF9LH_NtM6M0IGj_dZ-8" target="b0EF9LH_NtM6M0IGj_dZ-72">
          <mxGeometry width="160" relative="1" as="geometry">
            <mxPoint x="90" y="-60" as="sourcePoint" />
            <mxPoint x="85" y="-156" as="targetPoint" />
            <Array as="points" />
          </mxGeometry>
        </mxCell>
        <mxCell id="b0EF9LH_NtM6M0IGj_dZ-74" value="" style="endArrow=diamondThin;endFill=1;endSize=24;html=1;rounded=0;entryX=1;entryY=0.5;entryDx=0;entryDy=0;exitX=0;exitY=0.5;exitDx=0;exitDy=0;" edge="1" parent="1" source="b0EF9LH_NtM6M0IGj_dZ-9" target="b0EF9LH_NtM6M0IGj_dZ-75">
          <mxGeometry width="160" relative="1" as="geometry">
            <mxPoint x="110" y="180" as="sourcePoint" />
            <mxPoint x="30" y="210" as="targetPoint" />
          </mxGeometry>
        </mxCell>
        <mxCell id="b0EF9LH_NtM6M0IGj_dZ-75" value="&amp;lt;&amp;lt;Value Object&amp;gt;&amp;gt;&lt;br style=&quot;border-color: var(--border-color);&quot;&gt;DescriÃ§Ã£o de Piso" style="rounded=0;whiteSpace=wrap;html=1;" vertex="1" parent="1">
          <mxGeometry x="-197.5" y="160" width="120" height="60" as="geometry" />
        </mxCell>
        <mxCell id="b0EF9LH_NtM6M0IGj_dZ-76" value="&amp;lt;&amp;lt;Value Object&amp;gt;&amp;gt;&lt;br style=&quot;border-color: var(--border-color);&quot;&gt;CategorizaÃ§Ã£o" style="rounded=0;whiteSpace=wrap;html=1;" vertex="1" parent="1">
          <mxGeometry x="-140" y="280" width="120" height="60" as="geometry" />
        </mxCell>
        <mxCell id="b0EF9LH_NtM6M0IGj_dZ-77" value="" style="endArrow=diamondThin;endFill=1;endSize=24;html=1;rounded=0;entryX=1;entryY=0.5;entryDx=0;entryDy=0;exitX=0;exitY=0.5;exitDx=0;exitDy=0;" edge="1" parent="1" source="b0EF9LH_NtM6M0IGj_dZ-35" target="b0EF9LH_NtM6M0IGj_dZ-76">
          <mxGeometry width="160" relative="1" as="geometry">
            <mxPoint x="130" y="320" as="sourcePoint" />
            <mxPoint x="70" y="285" as="targetPoint" />
          </mxGeometry>
        </mxCell>
        <mxCell id="b0EF9LH_NtM6M0IGj_dZ-78" value="&amp;lt;&amp;lt;Value Object&amp;gt;&amp;gt;&lt;br style=&quot;border-color: var(--border-color);&quot;&gt;DescriÃ§Ã£o da Sala" style="rounded=0;whiteSpace=wrap;html=1;" vertex="1" parent="1">
          <mxGeometry x="-100.48" y="351.81" width="120" height="60" as="geometry" />
        </mxCell>
        <mxCell id="b0EF9LH_NtM6M0IGj_dZ-79" value="" style="endArrow=diamondThin;endFill=1;endSize=24;html=1;rounded=0;entryX=1;entryY=0.5;entryDx=0;entryDy=0;exitX=0;exitY=1;exitDx=0;exitDy=0;" edge="1" parent="1" source="b0EF9LH_NtM6M0IGj_dZ-35" target="b0EF9LH_NtM6M0IGj_dZ-78">
          <mxGeometry width="160" relative="1" as="geometry">
            <mxPoint x="140" y="328" as="sourcePoint" />
            <mxPoint x="-10" y="320" as="targetPoint" />
          </mxGeometry>
        </mxCell>
        <mxCell id="b0EF9LH_NtM6M0IGj_dZ-80" value="" style="endArrow=classic;html=1;rounded=0;entryX=0.75;entryY=0;entryDx=0;entryDy=0;exitX=1;exitY=0.5;exitDx=0;exitDy=0;" edge="1" parent="1" source="b0EF9LH_NtM6M0IGj_dZ-36" target="b0EF9LH_NtM6M0IGj_dZ-4">
          <mxGeometry width="50" height="50" relative="1" as="geometry">
            <mxPoint x="535" y="88" as="sourcePoint" />
            <mxPoint x="665" y="125" as="targetPoint" />
          </mxGeometry>
        </mxCell>
        <mxCell id="b0EF9LH_NtM6M0IGj_dZ-81" value="tem" style="edgeLabel;html=1;align=center;verticalAlign=middle;resizable=0;points=[];labelBackgroundColor=none;" vertex="1" connectable="0" parent="b0EF9LH_NtM6M0IGj_dZ-80">
          <mxGeometry x="0.1194" y="1" relative="1" as="geometry">
            <mxPoint x="4" y="-9" as="offset" />
          </mxGeometry>
        </mxCell>
        <mxCell id="b0EF9LH_NtM6M0IGj_dZ-82" value="1" style="text;html=1;align=center;verticalAlign=middle;resizable=0;points=[];autosize=1;strokeColor=none;fillColor=none;" vertex="1" parent="1">
          <mxGeometry x="460" y="-110" width="30" height="30" as="geometry" />
        </mxCell>
        <mxCell id="b0EF9LH_NtM6M0IGj_dZ-83" value="2" style="text;html=1;align=center;verticalAlign=middle;resizable=0;points=[];autosize=1;strokeColor=none;fillColor=none;" vertex="1" parent="1">
          <mxGeometry x="650" y="80" width="30" height="30" as="geometry" />
        </mxCell>
        <mxCell id="b0EF9LH_NtM6M0IGj_dZ-84" value="" style="shape=stencil(lZ3Zshw3kkS/hq9l2Jfnnpn/kJmoJq01ooxiz0z/fQNDq6p73bMOyDctEXUzkUAsHh6BD/lvf3365c+PH1L469vXL//4+L+ff/326UP+jw8pff7j08evn7+tf/qQ//ND/ttvX75+/PvXL//849fv//7nL1ty/9N/f/mf/Qv/912vzFsMWyuFf33/L/HWx///h//6Lv/75z/eyo9bbSrfQb7fRlL5hvKp/Ix8u9Wfkq/31/th+WDrU0G+3JKtD8nnW7XnofVPt6nyg54/3YquzyT59b/fy6dbYPnSRD7Sfgj6/OmW6H3DrVSRz/O1fJ63MUW+RpRPJk+/P25Nn6clkO+3qb/fCspnXX+Ub7em64/y9Ta7ysP+XPLJfp/ki57Hg3y+jazysB+WvNirdOu0/mu76PsO2g/Rv++k9Qx6XtYD0vMEXc98y3C+0rxvr6d8yygv9irfJsmPW4nv5JcBg+dPy54Pka/0+2s/V5EfJN9u4718xfVc8nmKfAb7s/73zCLfYD+s/y32rd4G7If1enLe2y3Q+67lSyKf+PeDyhf6/eVfgsjj+6a7e3jKk//a5ljlZwD55d7en5fO6xP1vPdbpOcJup9XQAH7Ia7z1UU+g/2J4+5un/IV3jea/e9on5d80OcZ9PvtvhxPefLvcdnz9+szbpHki/rHgecr5lsJIk/+ND7c7VN+wHmPUe3PMni0nvGWg8gnet9wdw9P+UL7wfbbvHU4X0tevu9E/7J+7f3yrB9I8Pvzbo3fyFP8M+/R1xt5sm/zflof8hGfZ+hxX/K0H4aGe2uDkH1Yu7eoPPmjx2l6yOdbgO/bbyWpfIf16Wqe1wEqsN+abv91QDOsZ7t7w4d8Q/l6tzYP+X7fsC/ko+yHcU9QruPze/T1kJ+cv+hxXAY+gH3Llo6k+xO+kG8STnJ8ldV9Jf5e+Z7dPORXgAD2cO2u9+Zh+2vy75a+LH9E/lHN1T4RsD5Jz+M+0RRf3XpQ+UH+9x69P8LPcE9QXsm/X88VgPP6SLqzAvxE8YaG80t+4vvKeVkJB8ZLFp4X9C9LPqg85e9J4YGVkPH6CDyzEkTyj0nTtZ1Q4vet7/fbSlgT2PN0K1PlJ8vL84/7DnwlL88z73/xhbyk1yUczld6vz9LxHhpWaep8pPyEQ1vS0I8LWl6twEkin/u0fhDfu1P+L5R/eOSnygv9r/U+w58IS/nsTSM56Pu5yVP/tfgqNLRP0a1/+WR4L6QT/L8g+NDjU/KxHgjavyw5Dvsz6D+ogb070Hhz/p4whfyYp9rxPwu6PeqCc9vuHvPh3zGeDVoelELnt+g571WxDeCxie1HdZH4Jy68lN8/iTwA+df4f60D/mJeGnQ9K4FjE9cPiL+5vLLn/L7iny5W7wflK/oT219WrsDTq/k3++HxvGVfd827l/wlbzAPxPzF9ufjePnoHBXD3cA6dV5Ebglov0P6t97wvh8yXeVJ7woaHzeT+e9y/Ow/wrqv5Y8+d+gcEKvB3sl8HlvWI+IBucw3hU1/1ryFH9Gzd87x/9R4fAlT/h5VPvcD/iJ7YeJeHvU/GI8TsSr+CSrPPmjqOWmEdFfr3hMfn/tf4wnFR5jf5fuf/0hn/F9LT8aBzxf4fNREJ/MGm+MesjHU1B5ykey4idLnuKrrOd9ML5R7t72jTzWczX+HB3jgarna8kTvtc0Ph8D8bGm+fvg89g1Px0Tn3/YfnsA3j+GB85wRzBe4plVFSghXAq9qQJFKNFC+qVQKWVI94jqxxUUU2anGrOiEDPgKdggYFcFClOeKODbZaVVahcvTRsvdkVylwJmYl1Tja1AqzTukcBbBXokq3UeFDx7OCnEi2Wl8H77A38H8h9J6z0zcEHPCuCHA7RN2E/tpWXDqr10IR/VNCjdCvRI/WKVCOXfRSp7BzJLu45gR5Ty4l0IcQUidgRFApYCIZ05quuZHIoshWHLSrW6nLQ2PB/smWuFrGjDPKDr5m5PCkXz17OCAEQnhaoI+1aAL70UBFLdCrRK1Y5ovEd91wrGMZhc9FoK3RQymMoNoto7UFk/P7KCNwqV6hBDA72lQAdoKRT70oOZUWrImDq2qVdVFSi3zlarXwpkyEq4b4Q3CoROLgVhS0yGYzedzV6a8NJigONkwlAxRHYpkH8oyZY1Y0lrI85ZFahmU7KCLkuBgvqSteo0C544Z1EuBfzSRWmmS4Hi9FI1MZmViY5NK3lLgZDWpSCh+qxcGu1aa5iNuZQrIjMFils3Vl1UgdhYS0FNZcd0uEyt90zG15bCrKpABfwa7vycNwqEOFWDvJcCpdAbEZdlHXcU55VCNQUyZBtDn6pA27sm263j7vVeKQhNaQ7cfDUbT2agIaseOkzcGtVS9aVAXrR60jSZ61CMuzORzFWrJU0T87iloP5hom1dCpo0MZ+oNstQuKC5FHR7T0R8alfIaivQsnaLWw8KHjocXnpacHL4DlNhnP2l4cQ1q+ssBcp2mwG9+zyAbd11EztxxAxvxkzeVgPMTMv38/XGkA1WcMtHUEvzE9eRPdCqJX5ML10KGiQ2rH+1ZieuIkDWup3pysvq27sgBbEN5dgtBeJEtmmOPWMovRTUP2T0Dz1YlpXQx/VotMWEW2OXgSz2JuJQN+bQIUPp2exSxCO6FDyfpkigF8vjGDnZtSNDW3FZ6wXcSta7N4VPl0KgR7KocgxeVmuoWgpUgV0KWkLoaMi6Y8wdU5o+lcQ4GsJFfaohG8xqGgYMjke8f61gMd8oyDMZRqxZCkhUNabYyFjJ3IUheaSETnEU5RKthyTce5SLYhqSc6uyxdaXoc23PpPkcWuzUHCyFCQdWNuR+JvDgJB1Qgig3fUYeSSuEC8FCeF6xtRyneAq75AwU9yArxStGcHayKSwEph1vk3v+823nBgBUtNqKMsRk+VbCgJTLFdPedz2aO83X2NMYDlZScBXBEWlvqUgaVmL6OM2AvDezKwokI7orBoJVI4ql8J8/w6b/kOP1BTMWdF4hgO0EQBRaNwA0NQIrJyFgPInAvBGgRzK7JrS7MyOVqlrwWIlmxSRLYU2VYFYwTtwNpoaGbKNAAiPLPJ5GHqmlwKFoXOoua/h9Eiy+crEdGDnI1MVcLcODbA2gETfYSjbonRkk+0kTLoPG9LJ5lTosTA/75kXPhQqOpSdecpfKOgUn+n2QyFjGDqtNFUSVpqmZbuFSZhzKjZTAgK0W0Fo8kzbmRaR7cbow18wIjj6h3kH3h8KDZkyW+H9h9ulJP4LzvU/rJKS37n5e28+WdaICcc+D+93aw4cCQyFgNPg/q2hTnE3MPJfkIrfLg/TspptTZV9XLcRAgXx1mnUhU1jokdqeuI2j55e2tqsNtGO/kK1vqPAPq6q5duNU/ThrLE+Mt66AiwJpePBeud7SPhQ6Ox2rVkmduQ6rDBUwp/Y2GpY929smFpO4w/HiiWR4Q2QBXG+nT9MVSDHPnyiScYW4GEtvTFhz8ym7GVVwKQpK+EpcjF4JGvzi0i0Gda3EQNWXoeVdZ6dsq8wAfnSE1d1JZ5av8MT3Zu6xIGlsm6DAgZWBlbWqYgDgyZW0enooVcKqbk65gHdmPQdib7tAYc/5al+2rri4xzpOfDb8H1Xuimdww2JuBvrlmQPB2u0rDSThvFLs87Mhta3GfO4YaPHymWrytP+2QUNHZRBCUzzzhyEGFbmK4MjKpehptaiK/qOavuNYZtq+VRBUkPt+r0Khpu1WyaCRNmVhmvnJzLeqrGUmCheqxJLOCZaObiwPhLGH7t8KyER1yWzMgES2pNdsdZBPWRPajLHjcH7Sr+FPBR5P0cFgyI2WlajDsWfJD5wtWMzK95/L+YClqG/z4MdylD/xYzMndnr7yPLqCv+zZTpJS+TEZi0uuW7yNN52fL6vhTGXcr/5PMg5enifSn+KQZ8B6zHXX0v4mE+kZsflu/2PPy+wgk7vm/X9Sfg50qe2CaX8szW6rqelNpveT2/SB/rWj89npemz386j/Y8/PzNnof3W9X9QznJ1fkioPvyPB6ex/YPv689PzLfLtaHSpTFOnm40WbLqz05nd+fkh/qvwLmR8Ww3oN9nu5fKH7e/lF/H/110Hg4IMeiOrTA9DXrVIyneCarPFKakhaUI2KLu08+iTzlRzt+08GGRDTY8aHGY3Qea1VGSWKGYjMQDzHt2mySC+cLxqbNWE6pBltmfp5hdQLmfA4llPHgxGpM2oKD4FrQzsOK37dZp/eBJmWTKSpy+lq0QiRCfc06rXjQ4s6vdZAjxcMta7zUEALe+IAOciReQTP8pzF+0nT9G/rHZva88WCxoZ0JzMzrPhnhiC8pHoV4nTVZMrFj42M2OJF+v+r3GsxPM97sQK5wtwowE6o3PinstPsLvQJAleKNeNSIGm9EbsccSQ36UqAT+ew0fwP6kgsYxp9YCoilNy2SR+7PGcZdjpnHDw5tZYwZzcqYplAQ53j25T4UKtdlolJrlkJjBfEcsTEtxdF6bvOYNrTzMCVwc3Fklfi0LQXJNuLgl64Kr8XJdfuq+dghYHdqTToUyZsu62G2++w6zCMlLLNMw0j2PAR6h2FBVGH+hI173m6NFXRZO5Kd51RGaxo4UW4XyeWlJ1qNXYaXuv2hOOvMAB4SuhSE+JIPBKSp4HQ+GAHLbja7Af5CDBbfbQIF8yEUQB5MEjQEP/OsR3/rEniY7VSM9zAdb04D5bm9ck5FWUrG+YoX3JqC/QV798nEOK4wb0KRjbyjNqZpLmjl8kiws1LoYYjdPqPyHQYWRzaxS/4Cd1ZtsyHVIJ7MMIfCn/UwiNjyr8oA/SaySIKReJTy0FV61ihemW8JcXcRhFbJeYs8HW1TZYYqIGuk20tXnFe1nJwYpsp50vaKURUoUV0KOsKvM8Gu2Xfg0vqsCl3XeSLjCMep8cSYZ3PxQ4Gvbdn9zpIdZuY4ZSMvF8SPnn3nD4XK1jspLbd1Diutw23lmES5eE56eKRwXBOYNg3v2af0KlqXL925ijlsfvnKMwkm2QmEpKE8oHtYXaMzUWD4xP/OZJx2McON7NLKy8TH9YledBTN/EbgHglL1kfESGBkY8skzsuSDQbjIQXDJ7/xARpRG0NGxQrBCIpwDYas9ig8+QuM4fRpy9qxSLC7a6x3i5zi2moSwo2BZYtuZP4xeOC++YcxkM3Wm410m9yaWO2lJyZBS0GpYMc+QAnhZmDwJ2u8NCOih0tBmMK7ZYcUko1R40Gd3fhFu+OTXtpGP05G6LsPWuDZ+91nx3Ga1YzMvztvScGiynlA0btWYXZsQDC60YAmDxBt1qAzuYOhVZtOx92Se2KuvMOhi7tYQ3NnbN9nlnUm8/lgqoFQYrsaeIFzF60890xyXikEU0AAPtjmm1zh8nFFPNu3WnCyM+xDDcoVqKh3NcqBqiaXwyLIel+OozgoiEN5A3Vca9iB+AENH9uBD1Vtv04c1bbTMHttpKMVG8UzEepbCjrLajKhMWtsPCdXHLMNXZqYK+50OKlCAnNcfeQF3960m+zEWHJ7SzVW7OS+pBrNLQ6Ec/Y4ITdlVFi2pGbyiOYyLXjoGH0XQ5j2SCRSMG7gYehSGZqzT75Wza99nY3nonWj8ze0rsV6ejagzxO/BN6cHK4XY9ROpjQXNwKVOWrFgofCj5QVMHo2Ob9SkBLEIWIq6eIvECS1x83JOzBxokStQy4FyndL1ALBBkd4ip8OXcpoyEqwEcPcP1yC1r9mxsQsT61/Tc53szW6zoT17w3uT1XAyd+GbMyEjNl9c49NU6TGvmwUusPMmGwFs8mk7j1o04aFkuXLhp3MyMta7aX5AruloClHRNt6OfCUou/LkaqUyV0ObUWFq7GwBwUfPItj4e0eqdPAUx+ey9DgxXhe7r3N4SIFpxwlTRv7F3nU87jYrThMupvL4ra7PYjZBwDTIzVLariElzyU5jHJl+OqKdC9HIhNmO7lyG2K+S6HeuOlyldjw3G+9dVgcrwW62r0OSpcDVdHhavx7RQ6XA6Ip4gsNjNkfPffHnJvL42XkVjP3mEvXQ7qJ1ZwtPsXJyPfF5cN8HzrGC1YPyh4whGwcy+GC3gTi4TGVOMbGRx1YOaZdbY8yzbXSIt13k40k9WmtDG3yK9AHhztacV/cIGm2B0gfEdiNvy6cWxoz9/4znOrhPAdLMmYkVwz9slm5fD7sn9GYUer4cvI+H2TGq4lj3dEW1kmYWtLtIpGRHqddWLvUhP+vt6Zc7CjdkcNt1L5HVM8zzXqwKfOo4Gj2p8+DncSCt6xRxDynYdJ5Wk9bThmb1jd9zvKGCiwOmCvhzsAJdvcgynxjjstQfOdtEHdaudc0+646+l0R5+Nq+M79MRFdo6egkbubR6eX8e2MfQf7o3FD/lxuGNQkv3G1PWgnRKN7bMx+453Hqr86U5FlT/d2ajypzshVZ5bDy0+qRPBRFvPOg53cuqsNm5NCMYvakjetP1ZmShg+79yq5Df+ZmRbBdsvl7Cor/foRox7PZOIc4Rg3babO4frr9yNrngH3RAbeHRLEGz6MJ3slnn/7NX9sf8aeH9Zv668LUNdmfjE8p+FT8YQ5X2j3VqlYIgmt/hXPC8RKUqFIZjo33fhDyzqPF/iYc71cX+LHkaNWGjrwu3xiadlJEnxpOWQmZmzCfdb5kvtEjqrzOP6bJ4OzPhIGn8kLkVz+7MzLw/k8YzuWBrWrKpewXPe9LRU5lbRf3O+YSgguU7OWErWNLScGZsNOl5zwFbh5NNZplIikmavySO/5N2pu1WPPy+UnJKHfNxKzvvVktcT8l/NwKA+bi27fCdw1kRnf0LhGVbZzXPki0K6iaGyQyviIcrRDS+inwRhXVaRr4UqFr/WkVMrel67pF8xMEyPkjB/Wad4ZFHK9nklMiluK54dORpk8MmBRzmtlvnJ48LtwHmkUcpTJs/yKN0bGJuPNC8rbqEcNoFnonbOfpNjnx1arCyDMNFThRG1mK0eGagO332wD7lKX2MWf3X4Itci+5/Dh/WabVObNo+uw4g+AmHt13z8c5349rloR3dabQx1h0p/9FawhqXxCyfargfPL9ouJ4pKn51CMeSEo6YZZ6STwpAODZrcYuv8NmDNKQdB8l3yao8lcOTomymyutjk0oqX4drfEOeZ+zX5xYOz5tenVC4fNnVX/DdiMm4WAwXJZucmJG2moxNlvm2YJt/nrG8k4NNoMb+4Gx4csL1XNG1zm7G589J/QtP2812b1fCyWLPXuM38hRO2mTohOFzruq/jvJibw/yTYuuB/mu54XTo2zx1UF+6KStA23JrutKCDdm62rmyZWbbSazEJgaafhVZJJg1PyR4b0StQcoYnmhWD4bsXy0W7b1+XHyXVb7cJikaZfFMm+nVMWrj/Jdn4fSx43m6fqjvA8IP8kP/V4oPywf5MmG0yejIdfXLi04//5Pfa+p+fhxsqpOlUF4qVj7PMMtxaiZEf3FlTzSVy+eB8/jxfvi5NaL9cSrki++F409udoPyEa/2G94T/JRfv3Dn798+/T9X377/Pvvf337+uUfH9/+/9++fP34969f/vnHr4//9NenX/78uP7t3w==);lineShape=1;" vertex="1" parent="1">
          <mxGeometry x="-197.5049034983267" y="-199.40006430683138" width="491.843343546876" height="222.96076607211398" as="geometry" />
        </mxCell>
        <mxCell id="b0EF9LH_NtM6M0IGj_dZ-85" value="" style="shape=stencil(nZ3ZkiQ3dkS/pl/TsC/PI+k/aMbmkDYUm9bs0fL3AkRFZZV75AFbb1yuV0YggLv4XfAp/+2Pn3/4/fOnFP749vXLPz7/5y8/fvv5U/6XTyn98tvPn7/+8m3906f8r5/y33768vXz379++edvP/7577//sCX3P/37l//Yf+G//sTN8phjo1L47z//S+qPFP/3v/zbn4Bff/ntI6C1j4D2mAkBcSrg//7EPSA/eldAGQjwX0gdAOlR7B1CBUB8tPARUB8jAyA8aldAg2Ud85GrAvIEQLcPVx8RXnqsRZRfKPjhRnmMogD6cGN9h6aATL8QH0V+IT8m/EKfjx4VUOEX+niEpgD60r09qjxSelT40n2t+lBACADI9uHitR3vAekxZfOFxywAiI9ZFVBgayxAtF/AVQqP/HGV4nw0OKJt/e+kgAzv0Mb1iu8AtKwLkD6euDgeDV66dXukwY+09Jz8QsfvsABypheAdmurqvkWIMDWWICUPwLe9u89oDy6vHS93uoVQJd16SX60lm1RizXoX0FEL0UMz/SOsFdAYmWNanWiAlP3ALkj1ojLgMA52EBgixreAxapXgdl3eASNs76olb54flw8d3Ho9KbxB0jfpjsHzJIp9YXmxDu3birXydjxlFnv7+km8fN0XF51/yYnrqo4C5XfIpifzheUIQ+UDvOx794/oUfv5xPe5TvsHBX/JR5cm9qOvzd5GP9Pz9spKX/JseeCUv+2EZcjiSdW2XIfLk4i35EkQe13+pQfEhH53Wvz6qWHE0sUs+il9xqe57+WIK4nrAV/LyfeNlS+7l86XQnvIVFNaSF0cqXgt8L7+WQ3Quv+963CDypA/rcoHE8l0K75V8/Pi+4VIwt/Jlqr4N6PCXN/X6lKf1L/3Rp8rT83Q1egEtUmm6/uEKYe7lzfUI6EgUc3sD6s9SNCBil7Rk9WEDmuwln+x5aH3SzfOQfFS35igf9PuifLi8qr8mn5e9+56/v+TDd/39m/18kI+631B+7f+s8vB9l3zW961wXvLNeamw33K71P278wLnfckXfX7yZ5a8rf8g+aqOesBgfcmry4qRQ67msSLtk4vut3gFN6/ki+rzCvpnyUe1RxS9ZdMPEf2NbPZu2V96nmx8DOrPJR/U/yH7lZP6Vxn9sSUv658vg/lK3vzDQPt5LYf6n5nWP10EwVOe7FeOl/l8+sO4Pmu7TJHH827xUcXYPEf1Zxr6Mzmof96uD/hKXqLazusZLvf6KU/nfYV/8jwDz9eSF39gIsOz/3cXedr/6+e7hP1vHtcrQDEAnfgFUA0RkfBMFsIcovgFaPJI6dLarwBKXSRkqneQPBRA22gBZFtsrgP0enKSKvNLt8sOveNrApycJ3v/DkCmfp+sqQDyvRcgi+2oeDg3e28kFZ6eai/d+B3qFZ2+A1A8ttl7eYeOBExygzyukPEeUNSDWgAyCQsgWY84eS8VjdEXgIKgHfM78UyPlC+l9Z7apgO0rOrHl06R9ZJxf9vw09ZIekTXfxm0SsuyyTtkDJ225ySAgr7X01V8ByBnZwHEGdzsFmy+9V2n/EJDtn0Biufo4Dysvan8Srs8uFcATVexBV3nazQFdFilBUjyHcYVtN0DPIM2rijgHlA1xbDNJAGKWtGDmV7KXV+a8yoLILzwAlR66aTE53Y9CBBta0zk82NQ6mE7Q/QOQWPNBciUs9bvlpl8GMrNLHkiV4ca6SU/KAWors/2RonM19g0c7DWNJ23vWMiDy/X+p08kkWawdzePZFXV9brTT4hGVuUK93RCTnzqh+XPAabasyXfAerkzW22NEeyouRWvKkJ5JymUue9k9SbmBHz2Q1bf0Lnvl0Ze3f5Cu7hPa+Fdc/am43V3SmonH/B2Ojfvxmg0jt2v7vuP+jclF54HmM6lIsefL6o3L5eaJHYen7EjA5EtXV3Gwl/H3j2jcbClYpaKxfEoZ2Qa1eyRjsB41ACpMVQbmEUjEZETSXVd4CjBfyZaj8hP0TVP+XfrE7r+Q/7s8ykCwNyr2ViT7vnTydR5OvAV2CcH2dN3km94Jyb/W0f0Rf1Xx4niTcEidng9ZA1HbYb0m4qH56no/ft070Z4K6ZI3J5HClqt/kE9ZlvXlTb/IZ3dag+rBV9FqDRn2tYTFDUH3e+mH/S0TWBpL/UXP1jcmuqN+rc3ItWq0E+1dRaxl6wuSs2dOeD/ZdqoZ6YY5Ic0G94n6wgrXeDv6VnJfe0f/JmrvrA5Ot+arFeZOfWIxZLl7xjVsNWPNUHuXjeRwR93/R7zsixhdFa2EGJy+qMqXjUMyg53dkPI9Vz+M4FHvofhgF/eGmvNNg/dxs/Suel6a5oNGuiPKFvATZS57+ftfcyGCysOt5HP2y+K/ix6TyVG3Wr1Tmm/zAeNCYlCWPlcIa/w72V4c+/wwYv1huYcnTfpua25mcfJzqn8y3iOaFvOTiljwxrzFocnAyix/Noi4ARdjRTN4sFwf4iqURnbs7ASjGiBp0zkOQZxnF2TBq3qmQpABSizHbd3urKnvJlk0FoCEuSqTOjvz0JvA+mpo5+EtXtTXzLTH2CiAF6vPg3Jj2XYAGpzk2DVc3gB6pae3WBlB8bsV/c5yo2maPRB5CHLa9x/XtXwGGAZCTmJpNmRMz2ilolL4AB9pf1d5Et915iQ0gPzCZopzoWG/mKSuAKtqX66VpZzYNu0zB3gHzZkUT4RtA71BvPhwCmpa6nQFSm3ICdCV4T4ChHtgJMJXyPACycSAnQLz7Ba44afYLxOrtEh7bGuRG5qIFAHNy0VJTInMycbKr0uyliUnL4wo8/qIiy/Oy++/VPTxSCZpo2xaIyPxkeolL/4u12y0AVT2UYrUkHVXlAqg30zDgLFUZtQWgNNgm9GRZ60VyvgJIDDy5IMkLdieT6AsgUe3yyOjElaElhQuAYefQdOTyKvHDTdN8Ca1osaqkBcAyfaP6dqslbO9d9y2AgNnFGu3DcbKwJos+J5aCLoDs1sG+Rs1qgRaAKpmqJcRGx3z+AggDvyJQcrB2O4OFrNgv0ZQTXTE3LmvXpMMo/KW7poVH5haIoWmuBcAehalO4khY37KbkpoCEhENQf3WEa8Tcg8wF25E/oVkWyNguUozcm5w5f6T+30HoN3aitq4PrkZzkKazieuNf3SC0BfupluXQAyim3oh+uTOzGnnrg+MAfUzU53joG6ZVk7t/T1rLT/AlDaohfNo3R2HXpV7b37ralZ2ir7NtNLL92Vyuwdt8b638KV9o7xdB+2NToWG6yNEA1AW2M3rcuyNrQP63wJc9K5WXIELVjpDbfGiPbh3jjUVwBJAXcesbAUo55p5lj38ABZ1ooFYptzzgqgLMOwMpQFoDTJsmia56kYPwyjWhaAKso2jywvXdA+jG5nuqDmG10r+xaAao2Gn4eM/NIwK7oA+KWnrRL3VuxhGlUBlI+fVkDRI8ai02o4O7cTLrdW2rV64BklSV2HZTGIb12uuQTgbaL2nsacLCNGWZ89ySUrgD7ctLzSzsPSsla1ostyUyJ/RW3RMsmU2Z5GPTYearIjT3mkjGpmWlPA9qBolWzkSOPquGmdEC3wgByrT6zMnExr/lu+MiX4nkTjG6BjSebmeqSEgedKTO/XL6i9F0DCgd3CzO+gq5SQDb35hYjphA2wuhlydKdNQdkhOW2+qZUShb2Z/eGsFInyD9O0d6mnLy1q5knvvNqtUp1QeATPHPodCrfhbEZMXjryOwyl7QonIBdAKxwnxkCbQrMSQWqHmpajzZ2VsTXE5oak2vSJCzwwaulWMVm5sNZoVjfN05l2fu/jedhtkbRKTZmTXRlMZ7pZKWvE8HgBpClgAdCwW+/RAtCkjCfR+AYIbKerlb8GJDen1WekySarWhsOM+vTuo3TwMFd01zpZxHAK+dEXvrQcDktD7TL5g+AqgBUxuVmLh16lUZj70oV+nA+ca1hFn8DrKuGUoQ7yW8vjYCqtXGpYQw0qxa/JA4tN8C+NDHrs9q0soZM4i2AqJbbR0K99EbtvwOgd+/L2jngKGpFN+Cwl2ywI3Ez0zjj/Q6k+Yqq+w3gd/AjSsmv+yNK6v7uFyh4vVUz1Bq0VykpgGoDpyUhN4C/w7TvgN1NPsLz8AtVy5E2gJa1qo07TeT8fwCq2Qf0KqvNc+AymG1FZbcyozur9URO1kvNNN8hxLdoNwdW9+7NBKSLZrvpNMOQxtKcz7z+SxdOnJPE3r31m+9CAF4l7TbLvL2NM97tUQdX2gAYvFo6IVck+3c4IC99UJXDvMrONMWwrTFYe9uAn8xNHzdhGWde59D4oUTMse8CKokUD1TL1EaOPTaKg1ftvKlsFKe1DjUOmmxCbel8pqdujT1KjGkKyXBs1oFfWg5Q5fA4hmDDCxMWJM+pUyc2OcPLNIz+wRNk61o5n3DDSHX2dKdmXSqPVPH9XSfOwJlW/NN4CN2u3Pm4N/agUdobNlWuZZ7m3S9V+o4/Rb6oaYiyZ9B+l81qjU2QGep2cFyrfrjG7SPTJme0wfypDVdskwvEsxIbbbKhzhpA9EOMbyPMO0+c3SkOyetEjsuiVnj0g/oOSmF1noYzTGv0jEHQmNqY1jNG4GPYI3ENyU6XWUIOE6PdHqlgxmIY57UniHMWUlOvFVm1nbYsCjglRi1XS8U/w6ZO7GwwA4RV6xw17fSx/QK2lNjM896wJ2OnwLsCKMYfNoWlc1fPsDbTZzXDLWAXClixA5msZxHLOwApsj70HoNdTkElId0236HVyPJrzxH89wCzD31gZcHOwVv3H063Lzq+oXM/Q89WfzEwg7dLc6wOhpzvbtO5+8QERJtqdvtxfr4US3fOEe4SKQPQKjW7KaHzdKhd5mVtlVhTVazPkEs3m90cMrgxd6dyqwIofbzL7b6vPi9arWdEvdSCKoGlC7HcLqjrMBKSZNWs6MhY8VSHbo3B3Wi16xywcZw2Lgzt4LisNk1ALAD53tV7VpmWrkXpn2XqyedbAO/ixK5YG0Oza29oBrqXbk7cfNVb8AJPyY7Kqi0A7dYalfNabiOFu9XmYi5Plh5pB7cGoOqIPetC6ugzrtKKtyW03M2WNJt6WFl8wbzOHu/RFEDpsmIU1uQBbqVZMw1PQCw2j3hyXqdYjnByfq0U+3Ds/pSiY71mR+++ZA2PZ+eh7lZCuyNs6mcwO31ohcxmpzdLwHOzvQsKZ111rfDYpBYNV2jKqu0yFOrksszR5Ilvt41ZOBw33bSv4XTraL0xPFPO29fekVq3CO+QOyKsCe+IsD6/I8JaCf8CQpTTEWENkUeEpdn+AkLVDbPNKeuMoSeNeQ+woWhzoo5NNsF6TqQgd3utvQOOQw033bLEAu1bt+wXqCQhGp99aK/dbc7edMmAZAAcMNm1sG/ylNnoto77omO7UTfY9m+9SpPpu1hvNCDVVkU3jpMnzlUdmbH7QA+DBQxAN64tgLAPk4d+xHzTaUqeWbQrN555sXuAd49zDUO0VrzJ2fkYrcOxctt/NI+gIuUSraNrFh5dYM0ck4c1TptRkbm6xfobM+e1tRJrHlhaex6uoLP+gcnDSn1SA9/UYQ0Ng7PsVr89uAm8q+EZB/JH7e1gn7LbxWydaRNr5ex4jm08+2hoB62kcvAZa9Y0yX06VRn1wRcIVo3GBheGm/cyeJq2VSIOHpBf7Pkz5uBshPNI3LCvpmNE3M9F9clmsilK0lzu4JujsnWrcVG7OWq7UxLe125v3AQxDp/rxkCTafXOnMp+oLqBvRyGs4rv2w+jmfT2g87Dhm0wU48HeaWSA8oHNfOH1GTQlEHjawbsYsjNLOPfFz+lcWooWANPxUIAG7vzZIlfyAuduodl4nBcHR7JN8V5bcVEe2Gzw56N8a/kZXgqEztBz2OtGMrZetbTeoqnu4e54vMIXVH51ha72K+e9r/IFw4s7eLSwuGJ7c/Cle42/LV0pJhsmGtpSDPbMNfCVzvY3RG7IYiHDX/8vqVg/s6Gvxae0hCsuSdhiBs0/izxMLxWh09zCsjSwCVgv0dQ0j5zH6fNBdgUIUW3Nuy/o72LSprmjkm1qPthX5WH8jpsngu17OLPXA/DerWzqmKlcNJ+tT38Hofly3k5VI/6cH2+mS3pftvlrLB/rHE4J/y+VmqRDzfX3bRU0X7I9vxc8GttycfLImSY+vkyCitx5vjC/z7pN+/vCod4Si9nYHvUdUJe5vh32HkPqE+sbHfJ01CPqfo8ByZpjLRMzP5H07iJ6yb3jTJWWI8sp2Xp94hX0onJWigOlKJdObIb4Ogdit1DNXAGdfQLprlnO9qNv7uFggBGvKbOlqZbPxvXJ8WhsVhiLiIONZaJB5lEG92buAs22jy9VJFe82H+qfKlgEEN2vPitXuATatImfMKUTnIlPkmRKtPSod7CpNtPr5eNfkB4vu+k9+vyqU6yZKMiWsZUlZHKk6+46/Y5YyDb34rSr1GPqLJmsciX1GWqhrPyHMYkk1kilw3marW9kQOD/bViZJZrby9mwbUkSdNb4YxK4AYyefVre8AuDVs7E48XJjQ7K5FrqtPTRVZ5NFyycZF7qtE+bJS4QFjQt4/dXV8drbkMJU2KSDxla5CbUS+B+1p0d4B8ABZ/epE32obZUnv8OWP1gPCsdfzUtynPHHDz4bAN7KOR95a8ogvFnq6jk958nv2PXVCnnDhRjQyh2+ttuCxcDWM3fpckDvfoUQS+cOt26KLMt/anpRsYa5i37qtfx8virMZyAm52D0eQ7wX1L3ZzfLp1nO98ZW/V9a7HiPq0Zy1PIq9hGyTgyPG+tlKvQO2rGSrMOaLrHLRYJwnNeWqxe2BbzG3gVkc22VrOQ5Ya5HNUgYMc3LTUC3wfu46+yogN+DFbIFzR13tMJcd5aElhewzZmuKPcjbYK2jvDixLF/CzfqQfFR/8Sg/7PtyAaXYl4O8lYgc5aetP+yHUm6eh+eER1sfLnrt+veJCyx2ExGfrz0kXNeH/JNi/Z180WO52c+YK54aPgSu27fkCF+su6d3634jrqvapTOsb3ebsuoH0uc1+3khfqJaEBq/sycgImFS/U53jN5qVbI3Yi6u+tQM1J+1qT5PaF9qs7uf0d5Vu1nrcFGZjT/N/Pw+VY2fv9usCfQ/qwUwmWtVLH4pPGV9aNNu4U6dqeVsTD1Vo88K5srq1A52vuix2lTsitWmzZPRWL7X7OZPrh1odhMsj2naqXwpVsFahhbt5kDcby1a3Sjaxz1JVONZyqXsdjUtBueb8SybFbmfZwGG0RDU5fEcSPAOQDFty8ZQccHWHugqQQPfhdaKelmRSyCa83iHCwerJhVjQx5vj70tCsCXNvY/8h0rz6EK7wCk65o1MUXutmk2kuZ5K9crgDK2PNOp2RDZyFmYbv50nEhp9ajMeZyYLujJBrtx+mwBdLAbx4i96EUaOyimkfg+ezFyhW0z9j/hXupD3agFwFWalgJkomRYG+3BMu9x8pYjoTLGYe1qietIh/s6hQupjR49WNvhyS2mz6aZt8S1O/uynawAnGaXbFIoz9DfvZf2CzicxTOrnJCYRX3CZwvUK4APCcSxnHfjIA8TW28GTvL4u2gvTemCWbVKbgMOv/C9Eyo9O4zfwX+B78XYgKyA0/z5aAD+BdVLnWsfqsU7HQPym1GKHRnN28GfCPDpjp1HOp0B6x9+/+Hbz3/+y0+//PrrH9++fvnH5/f//6cvXz///euXf/7249t/+uPnH37/vP7tfwA=);lineShape=1;" vertex="1" parent="1">
          <mxGeometry x="-165.2919515041831" y="196.47742436379735" width="478.07353819124864" height="228.0226241468206" as="geometry" />
        </mxCell>
        <mxCell id="b0EF9LH_NtM6M0IGj_dZ-86" value="1" style="text;html=1;align=center;verticalAlign=middle;resizable=0;points=[];autosize=1;strokeColor=none;fillColor=none;" vertex="1" parent="1">
          <mxGeometry x="200" y="125" width="30" height="30" as="geometry" />
        </mxCell>
        <mxCell id="b0EF9LH_NtM6M0IGj_dZ-87" value="&amp;lt;&amp;lt;Value Object&amp;gt;&amp;gt;&lt;br style=&quot;border-color: var(--border-color);&quot;&gt;NÃºmero de Piso" style="rounded=0;whiteSpace=wrap;html=1;" vertex="1" parent="1">
          <mxGeometry x="-160" y="23.56" width="120" height="60" as="geometry" />
        </mxCell>
        <mxCell id="b0EF9LH_NtM6M0IGj_dZ-88" value="" style="endArrow=diamondThin;endFill=1;endSize=24;html=1;rounded=0;exitX=0;exitY=0.5;exitDx=0;exitDy=0;entryX=1;entryY=0.5;entryDx=0;entryDy=0;" edge="1" parent="1" source="b0EF9LH_NtM6M0IGj_dZ-9" target="b0EF9LH_NtM6M0IGj_dZ-87">
          <mxGeometry width="160" relative="1" as="geometry">
            <mxPoint x="100" y="140" as="sourcePoint" />
            <mxPoint x="-80" y="130" as="targetPoint" />
          </mxGeometry>
        </mxCell>
        <mxCell id="b0EF9LH_NtM6M0IGj_dZ-89" value="" style="shape=stencil(lZ3ZsiM3kkS/Rq807Mtzz8x/yEzVLVn3qGQl9Sx/P8CoecnrnjwovmkJv8xEAoFYPX7If/n95x9/+/JDCr//8e3r37/89y8//fHzD/nffkjpl19//vLtlz/WP/2Q//2H/Je/fv325W/fvv7z15/+/PffftyS+5/+8+t/7b/wP3/icriFtlEp/O+f/yXeQvn///Aff8r/45dfn+TTvPWg8hnlU1f5BvLjNpLKD5TPU+UnyPfb1OeJAeXrUPmE8tHkaX3ardf35JPJ0/PU29T1Och3Xf8YUb7Y87C8rw/Jl9t863nKrdn3Zfn01t/Pt6H7H9cz30p+5/vmW7D1pPOYbs3+PstH2w8kH/284/PHW7H1pPX5+PnvlA+3ofoKv1e4OL903sMt2/uyfIhv6J+49Oeb8raepA+XvK0nyi99a/qZ5avpW5bPbz3/uIW3nudKP8P9suSjPs+/Lqhr+ebn618K75W83UeV5e15GpzHWH3/dziPS77pfh4sn3X/TDiPSz58Xv90CyRf9H5PeH6XfG0in+A8LvkcRT6TfPbnqbQ++ZaryHc6v+k2P69/vm/wV/Jyn64fpP28llv/fqP9trZjF/lJ7xt1f5ZbpOcPt15EvtB+Xvp2iHyH9523+Vm8ovqcuvvrrcJum/e99RCnzb905+dv1e6b44V4jSI+8K+nz5qn3xJowmXYFhGng97VThr3D/FCvAQRn7CQ/X6o7+LzVuEUNjP6A3oJ7VZNvsHTNzPy4i3D4tT7mXiSn/D3611nf8gvswy2pSvZdcrhVFUzCgt6XR9n6Em+w84sZsQvsx7et5hTt64lkM+6N/e1CuuTb13+fsdjnu351+ZHeTnny+wgrZnMiZr3L/hCXvfzxP2T9DBus5W8ZN3/B6sn2aXFVoA5CfsXcX2CyOe72fdK/vP671uFrDzdP9stpFtFL93t1tItp4p8axi65cxo6Kj5XX6wFXMbYsRMtpJUfod13vn7S37y+4p8PMmLUZLZKryQRyv4bnN9yJd7WOS75SeuT/9sZeSK5zGqvsqNvQqT7xh1i6rPM1/uUYNKeek33D8qz/rN5Etgq/ZCHq1mk19eF/99MToPXoUGuZZ8x/dtn/dPyWgtxftt8iFf7mGCV/JR5fl7iRFf6t3CeSWfVH7g/i9ilLdbweeR+7f0g/6RoMaSRy/Z5Mf9jV7IixNe5j0M90r+8/PXcFhPCRJVjmpHtT+X/ET5+Pm818ReuAZ96rKI+O9HlZ94HiUoU8th/YO8L9uTwby6hl5vUHugdvxe4e6sfMgP1LdB7Yf6ESZ7IS9BtDrxfIW79v7wBMNdI72Ql/uixbtj+0K+fV7PlnA/BA1ytYxREwuqtoL2Z7if7g/5ivrhSp78C5dvGEVw+Y72xpL/vN/auK/Ad8qz/2vyPaA/aM/fI9qTLp/eW/8lP3h9RD6jve3y675753v1elp/kW8H/aPr3+83znfKj9P3EvmJ/oLJj/CmfMRYkcsve+mtv5/Qn7X1H/m98zj4fnH5enpfkW8H/e/yrM8lSD06+gsuP9BfdvmJWZGg9uGS77g/2+f7ep70jyQFZzzoE/EfZzx8X7EHZsIspQWpl3xH+1ziVzPfEtpLZar8YH9QnqfgeqZ7NO9Jnu67dLeOPuTrPT77Kr40VJ78r6z222xoX1lSZMmTPZ/Vn1ryA+OTuj4dsxDF1of1ebHn6fcd/ioeG1We4o31Hm3+kB/oD1aNB86B/nWz5xkYL7Uk5VFe4iEH+a7+zpKnLHq39R943se9BuFJnvbnUHt1sr6dGp9c8rR/pmZHtjyc33m3pp7kyT6M4a6evh/Q3gOYi3cGqE48AmZ9C2Cp0A2gWyDZtcRm+k7O2i80zv4m+wVKPC2Aat6BN3Es6vpPdj0XoNlZwNhmvR/FZwAFd+rF6UFAs+vj8Ejt4ksfANPfgQDdbqgjYLz3C0sD2ZmmOyGOiw+HgCutRFZCnBcvTdfsArgeJrs9hQut0cjQCVoONwdm5D1UslU3mTrLtvO7jWypqMb+uswpOOfZkMnR+EeJy7N5QS+d7H7uGO/ZRSj2C4XKYLPtpY4R7W3i2S9QymXbeAbASsNsZ5qTIo9KlCcrkrKCj1KUZ7MTrvULu5Dz1ru61R4JDfNqnlfjesYPx/XJlCfXdAH0nuYamAWQ4ocFwC/dL7yRwADVreV+pK4Bw+zJwvnxYebPR13YNWBeeGCUsbww+TKGsNK0l84Ys8hBK6WXU0uWQDavfwEo67GTvk0B5MbnaF864nfIlnidXD6ck23vgJmPBUhDAeS65Y/6vicAxcazFXMsQIK9tHPdn196TLxQctZlHZPLY7KaDgtA+bkFkCr6BcDvULQCZAyMeCyApAzHR6XwK0DPCqAY507Z2yORU5mrWmSjc5VSvfsjTwCy7hdA8tQLQH7fAkhgawESrVLTK2s0Pg9Nr6zRMBSWu+3Whm7ZAugqNT4PXUuWB5dV5nH/e0+AxgCNd1Ze1qEJxFH4iE41fxYA1czUG2gBMAQV1GlaALKXilXOjsxBNCvNXQDS3sXCqgtAy1osJjAyWgILIInTwYmmkjQQsgBUubcAYmANToWWrLG0wRXkC1AMQC0sCzAsW0N2aynqsY/IX/oj2vwEID+uFLW9B7ctFDN0B/dFLICUcCwAlRgtgEROdk4L1MwCSDBncOvOrmmRGyigA15ctwb0H0rXYM4CkONXuhYSLwD508XaZRaArt1H4cwzgFbJog4LQLbGLrWxR0KtMTVbsgFU3WxNACNg+eiu5rFHIt1aPQEYMOBdrS1tA+A81GgHKKDDsQBy7XauKa6mWzeAisyTNRwcfiFpL9gZoD0KE+uOatZgzhkgUYczQLTGCVDU4TgDLlaJAWKsnwBVe4LPgDcfqZq9xAXGu37LtMYBoP0ogVNkXXsiTgeomykdsImidg09ngBDswNnQDVFRiGvBZiuZggwNfN4BvgdR+/Q3G49Ai4eCT5cs+q0w9ZYgOkAaj+KV5qP8qFWUHsGDAdQx1LSFOcZUNqbgP6WEmj56pEYUN7SS836fk6Aos7rGZBde9MqFfXjDrfoAkxfJQJU1Rqdw0ULUPylGXDxpQnQ1OE4A4pf7PTSTaOhp+/Q1V46femucb6TEvgo4fhegGX8TnrJwhSnlx5at7wBoL3b1ED5ApBLs+tSHcC/MGx7UylRDxdag3otuqUI+8TI+gJ0A1D3Vo/q4ncuz+2WU1wA6mru1qCxCz5plaLGBPrEDtVuOcUFSNTAmzRhsQH8C81UJTngCzDtpakquecLU/oAqAaItKz5HvD93l8omnQ5A8q7AL/jEFDVxT8Dsl1ZB0Cze/oAcKcJAU1V5RlQ7Uzjl26alD8BuhJXnAHZ3oGiDr0r+cAJYMGcDSBFZowCG0Cqclx8OCr83lrIH4k039RSwc6Zph2J8V9ICPBiekqZj3DhTyPAyoMXgJymBRDn9bHQ14CkkfXO6bUd5baOA0rrDFfGXHg2PNQykDNgWBJyA+hLF7t2B0ZDHxmTJwBZAgugt+jAuplRNUzRucRwAVR7D4x7D+Nr260i9AtNszT9UNvaTbdyXnQBJN7aO1qVO886FICbb9hu5f6q3c7QFUCJ1GFB5q2eafO53col5NP1Epcj7TICATS0vXehQlMAct9ELVJZAFrWaX28uw8K9tICDHskuqdnMoejolu2ANLKsgD40sn8ae4lnVap1it/6WzfoWBaZxbz2AvmFBdAXZqC/SaP9o8PQMYKqVnNHchY+vwoAnsCIJNSNV80MZeS23wRL8XdMzIUQJnX2dRjX64gngfLxzWOa0yjPdoeNgMk/9D4QtmVoJ/foXW8dnc1qzxSw7KwaTxS7XBEhwZzFoCsymnqfofZ6KWHvXRGvoNH7fUHIPGHm1pH1jiLP6eGKVpEe2kBZHu3iPf0AggTYuPc7jTbuwU0pefUSoQ6WVVO1Uu7z/3wCwag4uoLAN/TFwCm4rkAVFaVVwBK1V4ACia0LwAZ40tz6omrCftQLn6BaSDn1IryGk7bW7zdnabnEyeVOYUdjjm1xLCwVTmN2rS005cWq7JUjLduQFQAqvuhrmUpfO0ONUMLd5I+GjCeAEQ1sgGfVeWumeL7QbR34ebc3bFhbD6Hd5DUVOGKkDm0cWWX0/GyiseeJ4bid3+hMEIdOvaGhosyt3zuJhID4P3QtV5j13KSXura9JErG1jduD+5sn+bP/ILB3ZOa/zchcSkl7oe0Zyx9NltvgXAd2gaxs6J9ZI1TGQuo9+GrrBzMTvaAuhLR6xv3S0eVQF4po3191Hr/wogxkkOfANVTfsvANp8ReMaB466aaSUm82VvrS5ZYlzKNOq4hOH7aZ1cyZud1uAYr9weKRYFYCrlNQtS523d1IPJXGoZQGUUbljHmgam8ECoDI2jvndcE7vENUtS42vXetufrTAv4zNZAVQoHxHf+RLc5H7ji85RyUAHhQeTwCyjD1GlipGf8a0zce0Ko+ekCcAhh6H6qVN5Enh06EB2gWg0udh8z02GS4FmbuGsRNz73m8NRW8HzZ3zFBA4hCwxGZSwdjMZrORX8jYrLz7KZoCMKJrYzt2fydtvqJB5gWgwuRhnMIbwAkLCSKcAarIuP9hZJ2NcwIkTX5tAOeBir8DbQ1n5s3IV787BfyRaGtY6cKDXfkVQM9Dxp5Xz8ft5mJ66WBag/tQHgXnzwDOWk5bJUwG2xikDeBf0Psho2XczdvdANDe3SZ5JI7o9mGWALuWO3Nl54EqN3u3zZdw2sBOEyUFkJfVrfc4cQNRt3a3wwCHbtz0if2H7to7YWymN213e/A1XQOq+kCJw0W92plOaC91qyg/jMXoVvW4AFghVWzzJWz/7MXOdMLYzAIoyTiPDulu3TPrWLe+3U3kRcuaNSr9YP66BiQzQyPG7nvSwGBiX7RbnXFiatruXOZHgN5xnAfqxn57mEHTg9G3R2z07VZCkiJrjaBxjQel+CVg55WiAeCldyGmrRI1mDYbrJc4iNCsd2Azn1Cp57CpBBE9xTa0uPpB3PwKoAZWRCXwyI09AUgJLICfB8pl7TpjAyD1WtOakxS5CrjZ5gt4HpolUh/8xNeAagYW9ykugPpAAeN8C6ADJZjAuNkEk8Sp2mbhogcp5yuAfmnmddiUxVEBFJtp7nAENBJb1rh34qbAlm142+QvnWwa4URbY3eJDAWQ09SSxgQeE+muAVEzHJELk72XJnKJYYtqL8XBrQDmcETmwWrB5vkM3t7Bpr7xwIUW7Eszo301PoHIdWTV8tNxYL13tWlWkQvPqqn7BaAYWbUMx572xx14OmyQK9Vq14ryzeNGXYTNxsF2LDHcfYpNAVQGU5uqytjRPa7G8LQAdMdVYyF5DDl8BVAl0Lhvt9r8rIb2UvUBVFyptptkgwJwWYvNwW1IYFat+jQ2jAlUH0LVMLi5k/yyShUt4+qzXis6ftXILCLz/npLd+RSnmrWfSxoe1ef91rwBqrWfBMLBqSq0VrFgtfuAuiVlZGvcvMJJAWQut8UB00BZLeWad8h43coQwNSMaEfV4bNbeYwRbGk/AKQO1Csuzkm5FQr3aboJTSlnf0ixhO/hs7RixjXKNY0Hg8sJM0UGROYbVIR2a0BQ14LoAOxAx6gUjWoFgN/uKqhlsfQzVcA6dDe/MPEEVJtiDwbuqUYLxzWMJaiqpVTwcVuh3ki/VHC+RPnjzINY0fJBUcQM81kY17CqohiHHVMrVySxig5Lb1LiFSeOpmKDeDjLHaJ1irFBz9quULHAOiSl3PPOe/HeLKHPK5PsDZaVu/G591Qu+ep3HeN+funes8N12fJF/37RB+brVCuYRFOtpKxyu87dP/z/MZspVCVOR0tbVDRN8pd37diL4iz8HHWOjd9noIGyJKXEouCV0CuGkcuWP6w5IvKJ5a3KdF0YeSicYuC+nOzS+p6UuIpF3WvmRovZw1aZGb3y+pBZfTec9aQdkZ9sjlHVZ70bU56vhKGFHOy4DEaizla7BijRrueTeXJzNrEsvo8ZOJnr+dh4lrT5xHDAptKV0wmpjU31pyI+iRZtD/i901G08DzBpM5KBwxTlZPzjx1V/LIKW2lSIHnA9v7Bp5vbHPe2f5Mlr7nWsQ0df8w08c2Z4fKE2/41L5snj/5KJ18yFMcIBtJE7ME5qD3Hc9rTVP1A88TTlPtw4gRq72eeh6pBDEZpWDEWM/ePybP+0FyOEw1mabeF1yOm6whhLs1Ls/jQV73G7L/Tw3PMQX2lrf9z3+/6f45nK9u8ofz+458tgRxYHvJ7hdOVuWoxZ/s8/v9GDCite9fiRFg5GXTruv5Iv/XWdcjc0Yn1c+c3N72j/59ZIy2xFlCfev2G9eSZE/9YXXLo+vhyV5iMnRNXmL+NXt15YnZXAtPMOCfjUIm4/nNRtbL5XPZJgQd7OGmEamDvd00kshdJUte/OvM69k1/lB4fbo1ZaH9k60wgmuSs3dYMVu/EYtVzNxt+nP1lykJnO0+rawPpw1QZp5kS5/yfOASrI+bI9FBGZE4vlFswDTzLBRj/+X+hWID1htWE5Wo/n7jIHTS89g5nmk9IR1z/M7C3rFkvthgNp5/VLKxrKC9WrKxUGAFwQVlOwfEnbGdI+5F6wcG068XI0fn/WDlmQPtz2Ll/kziVKrqn0P83OJRHw7itbxPlMN08pLXaVXY176Z3S1FQgGmYgPoIntspVvRSuAj0C0EEbAyoXTzkQ509kM3aWQvbAG0yoXL9RagWbqN/JIytLJ5AagvpViVfORq1GIcCZFHXxe7mnaeFFapBt17MeFlXI0HaCeHiag92ktnNEdrNHeVu3eqzeqMbBBVm0gcufG3WqvMAtBYgZq18yUWtOk2FXxVAFa5ZNt8ld/BxmzscgwuWtESq8rfwWZ1LgCdhwXQjHhFT9Gp4Pf0Tirisl7kXRZD36GpLxQbGvvV5nI85oO+AmgBVMM+rc0d7+VJ9A7dvjRTT9RuZWI8t6l2ZdiPnQnzhxXesM1WrVlzA+ilp/Zexs4VU/OiEI3CJs3K6iPbeQuglWs8SbPZzKPIszpbVEsjduZojrZKA7VGixZrHNjM3+JF+SqW4KaL0k86Dy1puC4yM+NmX7KXpjuuZSuAmkz6nzWjFZnatBnV7647Zip4vVAOlc2WhIyTGygsy7kH7NLWcHU/+TtUK8FlNu5mk+UXAEuhqxXITrxQdreCA+gAGe1b4hEVzShADtmV1q1pltNJrVvLUji1mYjtvQPGtKxW4JDYHWim7g8ptza0JOKQE2hTNd+pRcMIzU5NIBYV2n0p3OMkl+IGHPq0rM0E+0etuDRxud7uNbPdStu7R+ucj9w0e9UvRxbZZUceHaDLnj/8hWRULJx/7kldmg04dEbaKmF7dFZfNEXmys52Hpivb/ePWmMXBbkWQJui2D3ePbDeYHfosrVVIl+0V2ua5QLZbsRBu/KBW4u114xLJZwKfueCaKyA98tFHiDRtJgnMZVjv+r5w55wowU99Y+aO7AB/Au+rNT5smmordsZlYDFZg45s24cnCkdGQzsF/CIWhZ7A2i3TmuP5hbvYXUNG0DkFsHuOOYRHTas6lD6NIKGWjaAqFiMnX4nI0EJbEYP65w/MHr4l0Y2bmclSUwy4rwnCQtOL5hVDgDnbjm8g7PDJIxJX/DPHADOcHMEaA/s4R1sRPbpO1gn2IEYYlQrBGSuitHMbk3ogA8b5LFzz0xn75Q4ZN0vgF4onH0eNhnqRIkztLz7RE1k9dGHhPVwZZx5WaeRKnAJ7bBA+a7RZboxtfkKUy4HO6IFz8MFx1phRsBgWqNgGPuCJ65iUG0B1Ayt/NKWmU2VuYGTmaFcC7/5+uwdyHRYAKffI8t4cw5OBZAy3pT8TvBHdJTZrqzO7PTZmOg4wzxtcuBOGTNAyS14zMYCqCUwMEuzSf+7AnCVqp3pyWzcNoQ7fRR2vAIo38bEwq3ZtNEmB6Yr9sqewEqgaeo+Bz7T1sKXI7MPezEQeyjTcruZ7dZpo2g3Jy3/gkRONustHVEbK5AzU2raWIFdk0ZfelhLQ+UjOoxitqKXtWmjjRAZVaWN082c4ZjGcJMPFORDL5TMofhppApnYmqp1MhM0LE5y42NG7eGTTooXEw6bajkbtdj/nsxdAvbrdOmFBfm69v890EByLZqDW6lYDXFnBoYLJUvlKklJKUxTe7UGp7CTYPTvN1yHL4ggcEysextWq1DmZiPm0Zz9Wi+fwmQQkIO203rfKwJVykG642oXLx6jaATcYUoGPW6QvB+ukJwov0aQW1gVwjOp14hBt/X/gEnE7bbFmkHonBrJtn8PayfxMVsHKid1i7UuMpoWn/XYzz3S/0kL30Y82DzORq3LM6p9A3tcMFPGzR0HIYh6c7WThaB6NgFQE/FCEgbZ/PdSNmkdgyQ27RxZ//sqmMb50f3EAYpVT2MAeoaTNhjsdik1nmXTEs5m00rThhhn82mqJ+Hh00F4Ev7nMXMQ6uMs6IXnmJiufY9mZfHC8jl2As/kjmAnbvMF0B2607H0HfINsmR++qnD/nkWqxphR47HUMvbcwSOx1Dy5q0mHFT9NKHi7Y1Ontb0Qb3dlb3UWMD/RBMCBfDJXE2ns+w7TwAzSqlej9NC9DZeEypMXwSfGdq/mkjB9kc3eT/QwFkIQ+bXPdgoH4VqNVJjgO/wzC+uM5EK3s6qwFwHkG7GB1PDuCoV4OsKe5qJZ97aDOP1VVFxtPsh01iWQCktbfUeWe+nj1LuCkAt7cP+ZzHechDAZSy3ROX7cMRR9FIF6PjqTJkWCh4cJfsMNabx/Dsa4ARX25mfMoSmF4aHEzw6d0HgM8HH9xK7BPIB5NR+YzzwTStPkV9AyjtbHPaD9/BJ8EPLkDzWfOD/WqfZn8CWJrtDKi2W5Ed3Qo9ToB69eEY0N4FiP9wBlx8aaa17+8Cin84BsT3AFYYewbU9/ZS1lv0BDBlfAb09w6Q8eCfzrTxHB9UZbfBKhtASiBqgHAEvKe3m2fvQOZPj5pQXQDqR+mWHx3Mmd2t/n4w0UEP6tLsAhm4H5b3PBxApbdT/enB3DVtao3oBnCtrjZPMhvKHvk8FYBNB+NCVWJVtlUkDB7BuQCuvQ8Av9jJ/NlV2XZEKS+3AMVfmpa1WVPtkQe/2yodAOVdQHrvkbwR9/DSRS3jMyDbEcXvYJnw05c2YuQzoNiJOwCirxKz1PuXPgCKLyutktVMnwBWlX0GVAdwX1B670yHq83HgOYAJs73K4u8rGbEVAdVWY1p7Qy4eCS4garNSTkD3F46AFxr4Dt0jS+dARe6lQHBjyj1+jVNnR+2xubB95dmWvvp78CAi2uXu2vdEkBAufCnD4A3H6lcmNIIyBdO0wHgZugBkN57h3T14Rjg7vGh2/zCXqJW1itj/UBr7/YSRUOrDSUZPAaoBqNIZo6uGmwvMV2DExEMZplcAGGVHUxjWdz2PtCpW0vx4AlRmxDC3oHSOmVY5CRiZL3YjMLB3GTFRko9AnnXAKsn20M56ReaWQJMf1as6m4HIwlQzVhP/KWrnYePMtNXAMlaDi5FL1a7PhJ/OONA200C9NLFbL6EV1axgeI7inygkZfvwFn8YiNDBk+zL24Z5xOTkqRERmaqqWRURFw5WJLWCSwArlJUcrZRmIIl2qXI9NW7oM1+AfmCrA108NiTEkzdV2a8nloI+Oi9eAXQUEtlTkCr69tjoemRrJjxkax6BZDy4dFOtHSSBxrMQ5a7RXR51ny2YdyjM3O9x707L6vVOozB3OPNIomc5sxVi+jGYDZfm949BtNLWt33GJgt23zuXQFU65DdMp7MqO9xDaYAe5QjPwGQI79oi/1kTq9sJG8LgCyoWbXGPNAqmyk92dBdAOlXnFwuuevIqwIoBJxtIODk4t5sVIG7guPARRsVQLOEc9Rah8nXbg4aapn5RNcrvU2P/pFXAP0OBXvBk1UDT643TlZkPSvOxktWbTcrVrVsCsKuANqtyXqQF4BWabfcyC9wAWCyqMMC4LI27YOYDd2BRyfTEwCZtKvaS7MzdbW12M+OWZpko1B3SSCRVxuNzOxozexhIFkBpO6Tj0vqPC/A5yXxgJ9HO+MTgLTG7rAMCkj0pbOGsedADyVZzHhysdCjl/YJQLmsRzP6EwA3X1S7ddfU0oeLGoXbVbukNWxc3+TqogdR/ROALpRkJSSTuTo3F09WAHGrRWs0nTwldwHEhJtcmROt9Pmp7v0aMTRS/qh7fwVItkwI6KYFDi/RlY7kBDBO0zOgvPsLajscAFVD6xtAfRZW1XsCFLtRjgC9RidaJ9HmTM+JVe6bm9MPBLVx2HShOTGjHZMa3/uM0ksbwcOj3ekaEJVtZ07UldFYLU6AoFWMZ4ByFB8BelEzwG0+XiTjrn20jVzKDyNNnsyBocHWR9vcpbyNZ55cSGpJpsmdPV216pan9OPF4UeixItNSvLV3AZ+HhuKNtnHtamY8zAl0i7zwUEoLQfd9ghFucyJGewmmWocPEXEnqezuaPp6Mll9kk7v2fnKTF2xTbsZowaotvuC91ONpS0Ih+kkf4vn5Bahax69+B0BrOxM+6HYG5CQhPEhigsedIn1rMwObMS7KLkKVKWrppcsmeti4Onwrr8ODy/yvO0+it5ys+5PE+ZsKDFqBiDcPmCdvWVPBWWunxGD81rQ5icyOUjRgjfrT0x+T4xHuLyA2sqbH16x6y2y3O775U8BURdvr73fTsPanf5jPe1yzPxmctHtK9cnulJTb6xYX8lT7SbLs8xE5c/6hORbziVyPZzY7p708+tnPTtZ3uvZbyvLXDQmEXFcnaN8/BB046NeVWt+K1xW0iwoUpsfwYNY+zWe9RXcl/XjoH3oO78o8jrlbx09tfDeuoQ6NP9Iv7ULnZi+azyFIm1IU81YeApaP9iTQd7TOJUlafqBc0/VaZ4DloEXpgt3Mo/y8BsrIX+Cgd5gwaFd6kMRUZU/zym6rySLypP58XaeAvbP9GIcSr6O8bsXJi/zvJaJeP9HrWEpmTcbzaJoDA3o7UT7lIOfH4prdpjyd6S576JK/nD8xhVElWfufzgIJbJM9uEreceG8/PI7RhDe0f+7654lgHl2d9GzWTlQvGc1ye/U0r49npbbA3XJ5ppFw+nuSF/Yup55x4l+c/uPw46B+VZ0pCW//U0L+w/ZzY/o/GeFjRnoxG31zQv7P4yWZJxfOo4wN4qqoRRaR40IfKbcuzANLFDAeKlyb9XpHJFK1HJU70vyyqv+fE4PNI3VHkvHK2aT08BMko+mNDZmsf+VK56MiGfFeeLqfx/Fi4svFiphkOBbSBYxn9qaL7LfJ+tnaFPesO488S34s88aCq/Rm5ubNZ/oIbnCxbiNE6G+o1kEKiWzAH2Vm7DzAl16gbnxfuTGvPbOioGc8JT7O1fiN2w4dO8ClMsqVp44KbYKqSLVjyE40wImP55d6COokaafOi8ZjikIJoBREJcy5LXomG2eaxSbkJfdLok1PYBnaljD74nhQp45nYJsk2/wljbktF6qAv9Hmj8R9ErKOOxokfMSa2rgQt5cCcUTQly41C+8pJIk+9f4/5jQ95tPGaOr0BCeyitdkFVGx7UqK+L3EBRWvz5kFX0Ur8eJJWNHo8ZobwspjA+8G4W3h2WDTW4qO83BRH+fHW81jRwFG+vPX8Uws3mJPIg8hHedufpN/29tXzcpAX/cz848lm6QaMyXsB3VG+2/uSDW+VNoEL+pIGPQ/y2c/jQb7Y36fnz34ecX2K3l+H72VFEof9YI0JB3mbfH6UL7aeXP3b33pfY848rGfz++sg302evm+/WB/6+/3i/HIN+Xzr+9pM8oP+GVr0E9BPSMZlzvdLMqpgJlt6jEd4kqfmCCuSOP79aH+ffPCgNcsBmdhzUHsvIKFoDhrUDmhP5uDrj80jF/IY07h4HiqdvHpfqs28Wk/sgLv4XhgDsf0QUZ/7fuOc5ll+/cNvP/7x85//8tdf/vGP3//49vXvX57//1+/fvvyt29f//nrTx//6feff/zty/q3/wM=);lineShape=1;" vertex="1" parent="1">
          <mxGeometry x="-224.85746322348405" y="9.328785394572606" width="474.11702355621105" height="225.03839603264223" as="geometry" />
        </mxCell>
        <mxCell id="b0EF9LH_NtM6M0IGj_dZ-90" value="" style="endArrow=classic;html=1;rounded=0;entryX=0.5;entryY=0;entryDx=0;entryDy=0;exitX=0.5;exitY=1;exitDx=0;exitDy=0;" edge="1" parent="1" source="b0EF9LH_NtM6M0IGj_dZ-36" target="b0EF9LH_NtM6M0IGj_dZ-9">
          <mxGeometry width="50" height="50" relative="1" as="geometry">
            <mxPoint x="220" y="110" as="sourcePoint" />
            <mxPoint x="415" y="88" as="targetPoint" />
          </mxGeometry>
        </mxCell>
        <mxCell id="b0EF9LH_NtM6M0IGj_dZ-91" value="serve" style="edgeLabel;html=1;align=center;verticalAlign=middle;resizable=0;points=[];labelBackgroundColor=none;" vertex="1" connectable="0" parent="b0EF9LH_NtM6M0IGj_dZ-90">
          <mxGeometry x="-0.0705" y="1" relative="1" as="geometry">
            <mxPoint x="19" y="5" as="offset" />
          </mxGeometry>
        </mxCell>
        <mxCell id="b0EF9LH_NtM6M0IGj_dZ-92" value="1" style="text;html=1;align=center;verticalAlign=middle;resizable=0;points=[];autosize=1;strokeColor=none;fillColor=none;" vertex="1" parent="1">
          <mxGeometry x="382.22" y="-60" width="30" height="30" as="geometry" />
        </mxCell>
        <mxCell id="b0EF9LH_NtM6M0IGj_dZ-93" value="2..*" style="text;html=1;align=center;verticalAlign=middle;resizable=0;points=[];autosize=1;strokeColor=none;fillColor=none;" vertex="1" parent="1">
          <mxGeometry x="165" y="78.05000000000001" width="40" height="30" as="geometry" />
        </mxCell>
        <mxCell id="b0EF9LH_NtM6M0IGj_dZ-94" value="&amp;lt;&amp;lt;Value Object&amp;gt;&amp;gt;&lt;br style=&quot;border-color: var(--border-color);&quot;&gt;Marca do elevador&amp;nbsp;" style="rounded=0;whiteSpace=wrap;html=1;" vertex="1" parent="1">
          <mxGeometry x="262.22" y="-330" width="120" height="60" as="geometry" />
        </mxCell>
        <mxCell id="b0EF9LH_NtM6M0IGj_dZ-95" value="&amp;lt;&amp;lt;Value Object&amp;gt;&amp;gt;&lt;br style=&quot;border-color: var(--border-color);&quot;&gt;DescriÃ§Ã£o do elevador" style="rounded=0;whiteSpace=wrap;html=1;" vertex="1" parent="1">
          <mxGeometry x="460" y="-177.91999999999996" width="120" height="60" as="geometry" />
        </mxCell>
        <mxCell id="b0EF9LH_NtM6M0IGj_dZ-96" value="&amp;lt;&amp;lt;Value Object&amp;gt;&amp;gt;&lt;br style=&quot;border-color: var(--border-color);&quot;&gt;Modelo" style="rounded=0;whiteSpace=wrap;html=1;" vertex="1" parent="1">
          <mxGeometry x="395" y="-330" width="120" height="60" as="geometry" />
        </mxCell>
        <mxCell id="b0EF9LH_NtM6M0IGj_dZ-97" value="&amp;lt;&amp;lt;Value Object&amp;gt;&amp;gt;&lt;br style=&quot;border-color: var(--border-color);&quot;&gt;NÃºmero de sÃ©rie do elevador" style="rounded=0;whiteSpace=wrap;html=1;" vertex="1" parent="1">
          <mxGeometry x="465" y="-249.99999999999997" width="120" height="60" as="geometry" />
        </mxCell>
        <mxCell id="b0EF9LH_NtM6M0IGj_dZ-98" value="" style="endArrow=diamondThin;endFill=1;endSize=24;html=1;rounded=0;exitX=0.5;exitY=0;exitDx=0;exitDy=0;entryX=0.5;entryY=1;entryDx=0;entryDy=0;" edge="1" parent="1" source="b0EF9LH_NtM6M0IGj_dZ-36" target="b0EF9LH_NtM6M0IGj_dZ-94">
          <mxGeometry width="160" relative="1" as="geometry">
            <mxPoint x="370" y="-108" as="sourcePoint" />
            <mxPoint x="305" y="-189" as="targetPoint" />
          </mxGeometry>
        </mxCell>
        <mxCell id="b0EF9LH_NtM6M0IGj_dZ-99" value="" style="endArrow=diamondThin;endFill=1;endSize=24;html=1;rounded=0;exitX=0.5;exitY=0;exitDx=0;exitDy=0;entryX=0.5;entryY=1;entryDx=0;entryDy=0;" edge="1" parent="1" source="b0EF9LH_NtM6M0IGj_dZ-36" target="b0EF9LH_NtM6M0IGj_dZ-96">
          <mxGeometry width="160" relative="1" as="geometry">
            <mxPoint x="400" y="-108" as="sourcePoint" />
            <mxPoint x="332" y="-280" as="targetPoint" />
          </mxGeometry>
        </mxCell>
        <mxCell id="b0EF9LH_NtM6M0IGj_dZ-100" value="" style="endArrow=diamondThin;endFill=1;endSize=24;html=1;rounded=0;exitX=0.5;exitY=0;exitDx=0;exitDy=0;entryX=0;entryY=0.5;entryDx=0;entryDy=0;" edge="1" parent="1" source="b0EF9LH_NtM6M0IGj_dZ-36" target="b0EF9LH_NtM6M0IGj_dZ-97">
          <mxGeometry width="160" relative="1" as="geometry">
            <mxPoint x="410" y="-98" as="sourcePoint" />
            <mxPoint x="342" y="-270" as="targetPoint" />
          </mxGeometry>
        </mxCell>
        <mxCell id="b0EF9LH_NtM6M0IGj_dZ-101" value="" style="endArrow=diamondThin;endFill=1;endSize=24;html=1;rounded=0;exitX=0.5;exitY=0;exitDx=0;exitDy=0;entryX=0;entryY=0.5;entryDx=0;entryDy=0;" edge="1" parent="1" source="b0EF9LH_NtM6M0IGj_dZ-36" target="b0EF9LH_NtM6M0IGj_dZ-95">
          <mxGeometry width="160" relative="1" as="geometry">
            <mxPoint x="420" y="-88" as="sourcePoint" />
            <mxPoint x="352" y="-260" as="targetPoint" />
          </mxGeometry>
        </mxCell>
        <mxCell id="b0EF9LH_NtM6M0IGj_dZ-102" value="" style="shape=stencil(lZ3ZsiQ3jkS/Rq9p3JfnWf5DZl3dknWPSiapZ/n7IUeTN/K6Rx5WvWkBbsbCIAGHw/FD/pfff/rx1y8/pPD7H799/fuX//r5L3/89EP+1x9S+vmXn7789vMf659+yP/2Q/6Xv3797cvffvv6z1/+8ue///rjttz/9B9f/3P/hf/+0y+VR+nbK4X/+fO/5Eea//cf/v1P+3/8/Mtn+1DUvoN9flSzp7+fHyGJfQ5gnx41qn1E+xDUPoF9fJSh9hnsw2N+p709n9zQPmaxL3D9cT66/v0Cz3/Z///PX/YVrmfZ2/NsZD8erYp9r2if9HkOWG+xP+bn9fOxYN/Zy/ovjwTrbdnHIPaZrqc9ehT7yvapif2g66nP//20r49Az7/qequPBN/LspfnX/l+189Hsa+w/mN59C72jdbnenxJ7Aetn/X6P19/e0S6/rV8s9jj97K2M7XvA+zTY3x+/v0R6O+nR2lij9970vvtj07rIT765+c5HpH+fnxuZ5d9oedp++Hg9Rwe7fP1zOeG984+dbGn65mPWcR8wO3OR52fzPfvob1czb4f2H5s91zPN8Dtjkc3e7rd8chT7Sf+/SD26ZFhOX8srhd72p77o8r1r+MOPt+uX9eyH7Ccm77e9f3T9bdHG2o/4f2251/7sK/4/NdmU9R+wvWv/yvPpz2f2Bt7vf6Ox9262qr2DdZDfUT5+wPDt6rR4T7v4Xna7r/iCfr7RXfnZU/XXzR6W/YT1kN5rsan/Yq3KDwsz8Pzxb7h3w+f73fFl3RcZ13POx6F+80aDSz7gfYSja34mMKBrNH2jr/hfWX9XpY9rX87TQ/hc37EqPb0/Nevf97f9huhdOG5m73Y036VHs3sJ6U7errvL5rCf40O944E6zM9otljeP6Ysh76I1P4rN/vsqf7jc9f/7Dn/SE+qlzP2h/weorZ0/qPz7v7yC7Co1B48ohT7SfbS3YUcT1Hy34/nvCtfdD3lROmv0HPl2VP8UB4DMmuM+63QeOBZU/rIej5lctzR3pnL89n5SdoL/Hbsqd4z+0bpuN39gP2H7df4Ty+L7efsP7X85H3O547zDfbH96X2M9nPvZt9iVgfHJnT+my2398cd9sT/uP268dlden2dN5ZOu5ZExPg+6fhc+7oPlCKXi+h2fy+mJP6XjQ87HU5w75bv8xe/reo2azpeF5HZ/gzYs9whW6/y97hKMUPSn9iY+8Ox+z2nfc/6e834HrIWl8vuwJrksajy37gfFJk/uduN8mu/75jIjexXtJ7Wn/yc/o9wP9Cc+I6I29oG/LvsL1Z12fy57OC4v/a0Q4p2i8t+wJ3i56ni57irdX/lXVnuCoquth2VN+VBUtqpwvtCea8WJP8FXT/GvZ0/7QdH3WD3ztHT4gfz8/n9i34Q/LPiIeUpvaUzxmaPWyZzwnTbWneGxofLXsKR6emr/X8kSo3tiXoPYR7nca2lvwvIjhedy+ONAHH4NmDJUztg1QRnVARDPamiiPSmdAtEXBQe7G6OySOmU9yUD68gzc3zm0qQ6Yx2QFBmtFoHI5SCa2HGhlxI+F+epAj7VoLrYcEuwt8aPy8urAtQk9DTjbiB+1kRcH+vyXg+7vFfHK2Ox7qI9CS6M9yy8vDpUuqdmWVLli1Z+3+OJAmPdy0EO5clA0bFeqnNWPm/eAy3vcXBLhVNE3ykNg6jtle+b67xy0sNee4OF96BU0FlwOVDrZyaU5YHBn0XttuFp3eN3UobCDxhfrhD+U8+0XOjtoxNMwYnBIr3aGDJNitssh0i/k51N/cSAQfKOwQx2oSLlhYXNAmLFoHrUc6ANyGkkdmCjvyDaoQ2biie5Lg6HealvlxCNrB8NFHQicSVXR8OVA0baXa1rgT7TqobgcCM/ZBaSuDp0ea3uWez8cIhaAl4OUOJcDQUBeM1sOhGGlpkXClvh7aIq6LIdOq7Xp4msZ07blMJo60Bm3Ew1xKJhopK4HynKgTDUZEaUdSg1dawGNqRme/DQ+snatIKlDpaf0AX5+OHSE77ZDUwd8D10LgG1gwnrrQIjQjcNESOjWgSgR7tADc8ruHKhqfuMQ+WC/c5jf9Vh7wrj11oEishsHZrrdOJTT8naH0/IWh8oh3J1D+76l0Xj3vnOgXPTGoWNaloxQtxz64ZI+7xr9+InKgbIcCGTcDp83sj45IutPUO7FgVL81DUBH4EPFNtbRzj9gmS7I2IlJXWlniwHSvz2CfT5xY2E2M92SOpAZJV9KMovZP7iLBddDngotiea/eFwOHbbkz344oCHYtO0bFR+Sh8FhRcHDOGaMfI4eU1GMR0Ni9i3DsR6unHoT3jnW++hH39BlsZA4oFHZMsBY+9mRMTJpRWLl5YD5qJds90ZTjGf5HHL4XAoCnl0OWDyOpQfMyPirZvNGdQBb3pohWs5YBg6taQ3E5boloNsxssBD8WpadlyILhok0LlHjKSwHPQpTGZhb8cWlQHivlysDfNQHyOCoRMRtazUWuWA5UONxNlqgPBdjlp8WcyyLwclMvLZPbloIuv4q6Rs2a7ywHrgR8x5IsDQfHLQQ6U5UDZbjaoZTJstxky5kAVjlyVZLwc8KarRmSTQbVNqhnqQOnAxar5cGAafLZzenbE7nPXPpnZkSm3HIQqPTsCUrkrF2N2PNgv6s6LA8UaeTy5bi8OtPMth+oOcCguB31xHflmeWrBezkQ4Xvzg+zFTVp8UylqcyBsV4JyIpcDgQjFWwyYZFGsh2EOZCEWo5UsB8rYNwvJfoGgx5I09t4ORDxO9sUNTF6LlQiXA0UCJSv3YA5E4ZaDfnEDF1/JGkovBwp/SlGMbDnQvrQciv0C8sWLEqbmxLRs86OCOlBddDkIRjY5bi0GMs+J+fRyEFLEZJJtaTeXRJBXaRbNTOwa3awqd4C9tXQlgkwmKpVhYejRQar4JwcPdI8OQvY8ONRws5YODrrzHRyMv7wdqF8kWqA7ES6qyTIU/h6Wg1Tx9xdHDlmR9b1r0E1nbTE8bGTVeqL33soOek4PXN6bzuFHFvX5VFt8A6GWzTuweImYgZsVYPESpQO7Zu/hD910s6XREZXe1Wi7JMqBdnFZ1lJj+puBCDsypnvoStg6xN7LQR8rR/e1K+Q1G1Zed2HWUpoJm3EdWnSZFZPXOuycrtxlNi2aYYysTnusFXmU1cPQikB5nVp53ckr3MOu5FrGTpniruQmdaClsSu5dkkUVbZ4k4DTTTfja8zM7ZDRPqCMmWJL2h6+HGirXA4aSrMgREsW/nBtt5nixIaLqGc0K7tocrm5GQt5MlC+a8VNHRLdQzHYLvFNlxvYDm/amMUzIoWkGRduRsSMl4M+pYhhaDNy8eSSSDN28eS6aGvaHjm5vbMZv3g5UNGldeX+TK7ttjvMmLb7ZufDmLjdNzsfBrNaloPgrcuBGIPLQaKZ5UBnXJtWy5q8kU09ssbg5W3E5OVAxIIe9BMdnLHvmn1VB6SSW6/P4N6vbs2AgyOyHrX7YjkQlaebGM7ouBkvBy1+Mc7XDdfYpSn6BaM+j4bl5uUgsffgiGw5dPsF1ETIui8tB0rAe1bceznQRtZNVGlUDNaXg2D3y4FYLb0oqDaYZ7ypEFYXJUygFxUmGkwQXw5awCuIJPZqy7vgRtarQl7Lgco6vSqiuxwoPd7sDK9Pwwm0HKThaWR+014BZwGn7jyBzBtZ11hjOeCb7lZjz3zTw76HhF1Y3WRRBpcIu2Ez46BzYjXFwY2gy0E3Y2Y9jmCPlVu/l4M+Vu4NG1ELqeu/EE9gX4BRSBK8h/VMkv0CytkkO+MClmrXyonGm6EG3uUg1bLlQG96mGDUgcpzEUaeDuvdE+V22Ea2HAi7HwYBLweqT4+qAdb6QugUHU3D0E2pYgcJ1q+P9t6ha3dCZ0b5MG7ogUe2HJoRz6i8tsMp+wUqEe6ArakDlWqvkPDDoeGRtYPOpg50ZI2h1bLODRPDQul9xNAlTWPbNdzux7TFx700K4GRmmJnuGhaj98+6vkXVHSt4Cm6WTJG9SRAajnoJsDCF9M6XXaMRkph0d505ktK2rK3HCI7CKi2Ql8CypeDVMuu4Pqdg1RplgMBtNPV8iLrtWXFlzqjDhfT58WBgpNpkkadMYENcHV1wNWatSmwsYjNBumMUU5n3IYBjeRO4OYGGps6oMye9Vq2jsj6NCWw1vFQnHaKbvCF7qFq7N04j9uQsjhU7KqdVhJpLK65uUTiUPDY3Ui93HRGMGfXAsyBMvbZFLbbgCrdQ9NctEU82KdxQ3fHEd+DpDQXdH7v0E0FgVUoNpfImtEI955G9awM5kwTPqxMFppdle4qK5Ps6ltVB2KfXsSdD4eKWkezq3ja7mOnx2rs03pYrUMz9spq0ZtWIw4JafSbJSMOjHvvSm5WBzxFh704btnbxeXPl1QmJn7bYapD4HtQlR7utdykF5O5oQrHVYL/cGgc/kwNTkrD/GGzAj4v71IR15jTpIAKkoUuKsSLA2pZGDH5YjS9dZBfSPwBWdN44Tar7ZDVAfdWA8rLYW+dSojNExWipiEnW2KMX5wqog8E1abVdnPHost2EJW6hgXtObXokrnNajmoThoXtLfD500gF94EpumoF+wtm1PT48zSu8tBQLWcOC2bWlPMx9UqO1+OiGtsB1lLgYPEqYjuVqDhm1aBysmn6NSUJg1sZ5hTGVKpY8l8Tg2lUz9dkvCXUjvtS1LWSSzI4dtMqnwCGYiQGFnfDiYES0Sbi4H44kAs4O0gTylxpmgnUIqI800DmRO31vspmgKq/c6hjSvxsLyH5tPxGDrINx0H1oEukvCHQ+enNEyiuZ8CLDlFL42bt1GlXBITnjZVrqsD3rTJeEUmC10s+xcHKrrsdEB+IfPeap3yW5GJ70GimZj4KVnhKB7QH2v/jIkDrKbqs3taAaeWcihGltudzRZfOOXTknCcBP5dAZ4VxWdV5YjIXYTTNKQm75TVCLQcmlQjhXGqW61Ew1hr0R4UZl5M638aHMcU1acavOUVgxAZ9ckaY3TkE8ys+1dHjbCZrFzEgV7SHbgxeph8ggmVEWc0TRqGDaKm3A2py9O6bSrvdDZBqWKdaDfl6sQZIr0Mi+VZ0+2iJl32hyKRaqwiUjqGZcJcMu26KTJqM6zvmTvih5GoeeTGMEiSORPDWBlMYh2G83IlZhTTIEecYNnL88l4KI2sKUVGiGqXuHVCFkqCWlElYwJyERcue6zcRp/YRfHZsNoZsz1G0Cww8foPFunj/tCtHsnd4N0moCUszPWh8HRCYmw3CJJHaHQrUydEN7o1srLSTjclhcQjeZqlZthD1G1CWUJIqlfF4ZjKvIlk+jyp06Xb9xsRj+rZMpoT1y7o30fyUrKZSMxSi5ZsMOHRJnZFVPzpQVk/TCvqJobAOjPNZ2ph6tN8Rhb2+Df7viLub81ENRiE2pRtvV8635vPmML9cNlHvV9SfmhV4Z6AHJMtE1fUnp5/0f0knNojhv59lOTOGp8HjLeb8XEDgrfNVCVYEbFFzaeO9rJfHeyDFuoO12/97YEl3Y3KHrhFzXqpAvfxDd3PA3dHDt1/Asaf1eqSAferavphzAisBkMEltRv/n1R/HaVXV/s6X4tHz/aB31f2EZp+fLRPur3iPZZ93MesbD7cfX7RXsj7AeEmWrUMnXA/GXZF/v7ZB803jvaZ1s/pAUxff852Cd7v7D+i+WbR/v4XX/fOlgP129Cpgf7plAor4dlH+15Uhu+9aEd7e18oe+lFMVP+HsvRUmkB3tjg/F+VbKWT4/2vj+w8kiz9UAjUmzG3cE+erxxsC/2/Nk+2HojexNZCMjp2vo1ev0o8jNvzkfSWrIC/NHevhc6T7N18wUsE+ehAqFH+6jrk/Dh3P37OthX3X8O9vF74pNs4idHe39fbB/1+0L7erN+SLaqKlviaG/fL9oXLXgc7Zvubzhi6mb/PNhHe1+koZUVPzna2/l4sA8W/7PsXrd4nkX0bL2hNGHSwjm37GSbKcpN1/lmf6Za6rK3/QEFxmzmZEC8Mdv+HFnV05QjGB/Y5TfDH0gfdmp+wfjJLqepPY6IG45vEMErWb4WWZPUBKIPgqFd13/i52l4S2I99uZ48mHqw9TrQcVgq18wPuwz2bj5MVk+eBBKt7lJPGJ5T0g2e1r/WfOvzCOKs82k5fVv+BLXI3wmduYxINYrnVh+OStLIeF+u+2Fz8UK7D4DnL9fU6NKPJ/DzjuuL1zluhd7nvSS9flQvLft9flQ/SWZ9klCRUq3zzzPx3pfMu8/RYk0GWVM9vNMYk/15av8+Y3fY7GZ0qysnZVUxu3dyeKfzBLT9r1kHopw9z3y9Vu9ifDkZIq9ic+7rPUXrt8l45Mczovvta/+veMMlWoUJox/UtWGhsjP03qUIs9paqrwFHkSgrUec4dfMiXgyNOEusbD3PDhMzy5XpOsZyXwfmWz6QLvh9PxNFRwN7rwYcTUdPwcNbeD51/0/PMNvkr7Z44aLwVWhrZG2oD16GwzlgPyl5a94Rv0Pe58TfMX2g+z6ZXxSPV8U1+j+vhdforK8zf5L9rf5Nd0/t7l7wd7y+8O9oY/4PO5wTcO9oafHOwNn6F49Q7/Odhbvn+wN/wK7W/wMVyfN/jbwd7wPbS/wQ8pf7/DJw/2hn/i0IIbfPVg7++LFdd9/bC6ueHPxI+9w7fR/gY/xxHpN/jPwd7X53fWF1Au/qZ+gfY39ZGDvdVfDvZW30H7m/0TBcdv6lPEt7yrfx3sLZ6hfOqufkfn7119EO1v6o+k7HRX30T7m/opxZN39Vm0v6n/Huytvkz2d/Xrg73Fb6hHfFN/P9hbfR/tb/gDKJ19w0842Pt6ID7ADb/iYG/8DVQuvuGHHOyNf4L2N/yWg73lF3i/7eb90vPvN+uH+DkmiBpQ1Kxav1lgzfybeIDynWpt5NwgVKfXd6j/YvPHLF/7Tn4a8jNv+G/U2nnHr0P7G/7ewd6eDzVRtuz7G+oUG17EPciuzcz8mXaTj6AseL3hR9H7tYnPXO9uNiyZ+X7NZmEG7GTf/Fu9X+SLDv/eCZ9vU+VYucWvWSs+1/s2/1n5zLRf9aDrP7JmaLR+V9xPetR6QWQ+v9V/uZ7Y7XyMiBf1rPEMzwvvJk514J+bkOyB3151fR748zaDndu+u802i1jvdsXWyLK2xndNmI93Gzt26KcYqup2UDq1JvSE5+kWu1R8GzWkp/enoGpp8HoTzYEe9j0m5NeN6PUvqueOqPtnYl3XpPtJwn6TYQMPEve7Za//or5pNh0QFh/9znrWsO83syBlVbwis+xt9b+POqLN/z72Azb/+9i/1vX5FO4P7aYPxf16JnfAUhvDxJN5DuiwEYCF+x9NR6aw4lbQ/Z+HgM6g/JaK8fnW9hRVMhZGiIrfVjxfpuWnFff/Pf5W5O24P936Xxr3j2fFTxrLNBge1ViJKJuMLuLb06TlO2u8mZQkj43aegJqj7pfVfHqgd/jHk0kutssZeOq8tyfXrWeyBMFp4/JwnrclrCQWTEnBYuq9qjf5f1ugReozXaNzNCcNng+cog+TXw6HlRhu/VMchC35VYkiOOoZlpXfmTa0JZrlLbAzLJo3YREMqs6GVAZC1Zep82nXQ54D0NLtbGe9B01N6n8MTvZsfHXOUyJ56CuZYrb8ayNKKv1IFgyjbAwsaLqUlbLASWJp4XI4SRappzEg0qy6QrurOkg4vf5Hg5h/rQ24oPOwBZec0kxWhrTAmtWtnABvIub89ahq8NhLamWwUF8xZOnw+ls45eXw0HfUelQx+Wt+ejEBHZOI9xOlkqfWiHLTGmJIWiP+WaVw13fe6Dkl18U8z79tjMLe2wHIe4VzOy2Q1SHg6KdSDVtWUu+JOUGHsR/jDy/6Qe8XpVNyDOstoO8uMH5wtR4O/NM6DkVQM/z9FXLvrFFWA/7hunCoo6+yVoWnkbjeqSFZxy6SmXJJ4VH2fC33C6/B+FllILEue0gv1BZXd2UX0pj+ThrnS/9tOHLSb2FlXn/FrJUGSeVSlG3KpO/uKHp6nI4hFhyQlRuwHW96sqDHXcQN9SBINEdJsovHPbWoeF6zXyOWuRaeXDXtC6a5XCQ5pSorx5wiaE84XrYW63wWRu/6a7IaD1I25lKZR3IHXeVymsU8NvELKoDohOmZta4vXxa+blxvWU2jckaA/KuUtkSLw1TqWyH0S9N96VWeGmY5kzjUXmzaujQKguYVpv60PhNVxXebzzZaNoE89ZZ+9yEKpcDxpWmnNN4bPs0aHs5HH5BsMY2eav0wSyHWMPUrzrTeXy4TOf+9Gn9Gj3ym866a/TIoUNWhmDnloQ95McGFSX+Bek57DxQ8BoZ/eKAKJmxCju3yU2TCesZ+/I3rhzVAU/RpJtA50rDNCWyzlKRDqX3itzsawL0iwMujWDv4YC+Bw1D93gzHj4m5e/OeqnDQunOg4puJq7x0NybmW4dU5qbqXH9VCPSuXSdb9qGSO8y9GEYn3zTg2UmuwaJy4FCOK+7dQbi9+Rh+wWaCjSMWb/nNFKprtmItsm1t2ozDieOaBtVi3WD2ZLXiNwXByzHFptFfJjIacPtlwM+Vmvo21NFWUFVFZ9ZMvAaL/vigO8haY/qiJjHjajx0mDVyRGtysQ0jGE0+32R9FhtiuLgxt8RtNA0eHxNt/kegwcKdsOlB/eGdtvIBg+M6pb47fHIxD4ZNsw78+TsrrNiBh+73foTN4OCLqnZ0Fw+dntTIGRrHtNTqja8uDLHyDj9ozIJyIuonD9038gqtonuceFdHVDHtygKtxxw9HzRtGzv57RarXN+cKzRLfY+j57X5d2YDGeR8WgYSm/2X1AHQkO7tTeOzvzIZPfQmSCWNEgcHVHpHu2xdiyBdxvWOphT0K2nYQxeGlHTssHzlLsFuoMncvZg+9LATLEHBREGDwldmacgJzswPTBthzocpICFCjsmcu+c+7unExM52pqtJ3c3NAMGJ7dDNxsuMxmQajbYcQaMW/fg1KwOeNNdGeGTA6xmkNdkRLdZD8g8iD433e4nqwLs0axTHQjBataWO1kHoZku+UzYaLKJ/Ekd8KaN6XQNTH7nIAfKNTD53iHbU8pYsFgOgsJNVudpNk958tyhlpSuNTPfdLq5JKoD7QYSuSQeldei7q2TgZDlIKH0BvKoJ8FwjckkyhY0IttgJK2loKz7yWNIloPApxtQpb6ToH1gkwepuDD1rDj5rtqsyckRWbXy2uSIrNqg08kRWTUgZIPzB/XrqQ4o72wsrNkwbq1dK+C7hMEOAlPsIgkrbOtm3HFp7BY+czhoZgtGNnno0nKQSGCXw+g9NIXtdoWOHGxsxeShudUKFrssSU/JD5TB34NlKNeg3ncOUl67ysPvHHSrnDjBvBr595rc+M6h2C8Q6lCTAoPX6NN3DoKRTaYLLYdoT4lgihptE5iIYNWoKf7FBrp3MI2FObGpowbjbgaWYSk+huPsoY1fJ4+hMdY3eHzvb3Q76PhRLQc9e/lllKacpDmxg7A0ywkmQkClKox1Ma3eOfj6oMBvOWS7aaJ6laqZ0zWt997BxvAcvtNic0WuMcvvHILdA20dJWt+uSlBdEnWCnwRX+8dkoJM11Dwdw7NHmuix5o0C5+T5R1Mbveatf7OodkWTvXaEpXaso8heqzBEqGBRbkSLDcbqEm8NWzssKY9PxvP8CIdvXMQ9tk16fadg7ZlDKRJ5aGVl81SImGgYaf7wNXqSkhzYIlgSy2ZA2V/ud+8OCIm5m7LeyDekpuhIR0349wsR+6sV236vrMj4r85sEMdqHqUTbFxx9MsSV7tFwh6yKbxu3MCugersc3GN53te2gY7eZ8k9egbmCyA6VhBpuTNnZPrv3nZGccJ6Q52ida+ZuOWhzdSTW96WjfQ+UPKN5k4Sh3F+weCjKss81X3RN42UHfdEE6Qpq2zZSTxLomEZk1lKf2+E1uMk5DmVsz46G4HBThPMjODrskbnjZbYzyCwfh1m4vjpUUkk22mzwKLzXbKnk2QbJe6RkQWUtNk+oxEdZ1Ndndr0xypk0xo10XYQet1w4WeDZy5W7ppqVx50Db/Y1DY435O4eDqL6UCEZFGGs7WPmVZOeSIf67SE2faNPVOgoLT1vj6y7l84vTtZRP70ESv3HQdm9aqhnH4QZaHD18081YHgc542bj1VnvJxmdebBgrw9o6BOj+2QKRJtXxY9VgsQ+MNvdI9KDOuBQBBNF7Z1VnJsREzvWRW4cGiL+tw4EWN44cLx063B6SuJQ+FC8c0j8xakD03O2Q1cHQvxvHLgT6taByuA3DqxgdOtASdONA2uE3TqgSL857DG/h+VtDjiGwR0G6vokm2vdOsdLhvO1fvoFKWgth8M9CDTdGmrHpaYV4VZ5+IGJNRz6MvwE2mVr/h7kjGtc6/Rj99CM4pFAy6fzQWi0jTtl94gCceCZ88nYBcsBRfWrLY3E20xVGHvrJNJTqhoJtMMcqKols8Ysj2SUu0sa8p2DMHsbSy9eSkAvDrjNGMhcJyccxRr9Jk8jKnrTlcFNH3+ya8T0C1kh4Do4EjA6c2VuWMqKL11F5XuHpGlZ7bzNJOW3LQcMsEzUrDLlLhlhunJfd3KZps7fQ9TEr7IQ0dalNAdMB8LNU6Km0WQM69qQJR6tc3w7wJuOhpzUhrXOS3rk1QFeXBzWA9pwacShsN12gDcdrVVk0wfokoySXVkCazkk+wUUkDAJo8qxd2zW+NpwX4pNaYO1Ia4RTXaqNpa0qHpOV8YEYrl5D7R7R+tu3A50D9aseIlP3ztkTfy2A30PWfsna8XwJyYtr1VWJIpJQ7haeXkbXa1WXt5RCUCVsZkYbfGxjEd0ybzKy9s0pGvFIysGDUOXA3GSorXhbd1z6li2z+HQeqhAfOW4eGh6suwpaLXiXWVU3YgRm9xDvQNKZK7MYexaja8sS9ktxshIuzDQZ9lT2cHSjMrtrk1rOVvRgRgzpm3AY+uqvS+WWbXm8sqyr9Z3V1mG1qZ6VG73sqkDyx7H5igiVplPnW1vZ5nnrNnIsifmRLbzL/IYTxMd4bHYSXHSPfeCgjulilQe65T0+y3Mp7FNvTCzxFgchUXjonYwbrIWHXwqoVgGolpR94fCjE7jiBRu4gmaYG/pHXhfphJbmFYbtPBUGnJeg+5XpSIgbN01y57Kf6YyX1hG11KJUlCFM2juXjJ+70HVZwrjqKaXVhISbu7sKSBw+4jnxZ095chuH3B/vrOn/db15Cbun24/8Dyy95WZXeT2DAnc2VP67fbtsJ51iu3pe5R4IFdMQ239L3uqkwWbwlswpzSGWs6YeNv+sAk0vP+I6ByPfbapnJkVboMCaXvuJn7vch7tuZ7491VFnc/fYFO052F9TrMnjDjqeb0pIZSQ6PtNTGSLNnWeleDsvF72dF5ExTx2tQLP9272mJsrdHuQLrWe241HExZmUxAKxktJ0YuDWGuyKRQF92ebIrbVYwle1B6BdKhJ2JTrA+HIpm6wGIMpGqXEY3htPUdEFrNyJfYKJLaekiYPY3Oy7ieJxyAbEnTtkO/ynaH22Hdgqs4T4w2DsiJrw9gU+ci9PkWx5jiwxGu9ppFlUG0qZOxYASuKk8WOlfxqU5QarueqmhaxYfxmyjmRqZvVpihVXA9Nv5eNdlKDpk09Z9WPZlPYmfLYTKac44duz/+jVeGNvRSalz3xu6xLMUb8+0Pjqw1CkpaSAoiRaUtDKyeRx/SZkgB36DhDldXMFY3iFoxo0efAxRCDSZVwtSEovYm7K9e7kappx4932dtMDwoml71Eb9ziuocv6MwT2qyu2QuXPS2GaDOUKtfpspLqKgrwxKKsbg6W9t6h14O1nqLoRuX1VjQ6KVw1rHr9BZP9XXvSmUKUvEQTbyj8fGxmKav3RqNZ8gyoZS/oVeb1ZvNFWCw72gwolrlaZ7koAmY8HKOx15kPs2MRnbFGCiPRqikJiyM7lpJsh8kwQdFhBpc2uqcz2egw2tmjzlhDjke06Jbtk6I5h+uxmY0sFHLlEi/2TGrRbIf55NaaeXj+RbuHjn9f9itOdpI1TB04m0VJC4f1Viy7Y4Za8Rl9yLQtPjMQ+Thmn5mIaNfDMwD9fjmY9OeZUUbA31dmgreth8w0YVtvvH+e7dc//PrjHz/9+S9//fkf//j9j9++/v3L6///69ffvvztt6///OUvH//p959+/PXL+rf/BQ==);lineShape=1;" vertex="1" parent="1">
          <mxGeometry x="182.90959464003572" y="-351.53080155974317" width="442.5008806813035" height="324.89627040047577" as="geometry" />
        </mxCell>
      </root>
    </mxGraphModel>
  </diagram>
</mxfile>
